<?xml version="1.0" standalone="no"?>
<!DOCTYPE svg PUBLIC "-//W3C//DTD SVG 20010904//EN"
 "http://www.w3.org/TR/2001/REC-SVG-20010904/DTD/svg10.dtd">
<svg version="1.0" xmlns="http://www.w3.org/2000/svg"
 width="900.000000pt" height="900.000000pt" viewBox="0 0 900.000000 900.000000"
 preserveAspectRatio="xMidYMid meet">
<metadata>
Created by potrace 1.11, written by Peter Selinger 2001-2013
</metadata>
<g transform="translate(0.000000,900.000000) scale(0.100000,-0.100000)"
fill="#000000" stroke="none">
<path d="M4189 8363 c-13 -16 -12 -17 4 -4 16 13 21 21 13 21 -2 0 -10 -8 -17
-17z"/>
<path d="M4345 8360 c-3 -6 1 -7 9 -4 18 7 21 14 7 14 -6 0 -13 -4 -16 -10z"/>
<path d="M4505 8360 c-3 -6 1 -7 9 -4 18 7 21 14 7 14 -6 0 -13 -4 -16 -10z"/>
<path d="M4366 8318 c3 -5 10 -6 15 -3 13 9 11 12 -6 12 -8 0 -12 -4 -9 -9z"/>
<path d="M4180 8280 c-8 -5 -10 -10 -5 -10 6 0 17 5 25 10 8 5 11 10 5 10 -5
0 -17 -5 -25 -10z"/>
<path d="M4110 8260 c0 -5 5 -10 11 -10 5 0 7 5 4 10 -3 6 -8 10 -11 10 -2 0
-4 -4 -4 -10z"/>
<path d="M3965 8200 c-3 -6 1 -7 9 -4 18 7 21 14 7 14 -6 0 -13 -4 -16 -10z"/>
<path d="M3916 8073 c-6 -14 -5 -15 5 -6 7 7 10 15 7 18 -3 3 -9 -2 -12 -12z"/>
<path d="M3965 7960 c-3 -6 1 -7 9 -4 18 7 21 14 7 14 -6 0 -13 -4 -16 -10z"/>
<path d="M3996 7853 c-6 -14 -5 -15 5 -6 7 7 10 15 7 18 -3 3 -9 -2 -12 -12z"/>
<path d="M4150 7766 c0 -2 7 -7 16 -10 8 -3 12 -2 9 4 -6 10 -25 14 -25 6z"/>
<path d="M4355 7480 c3 -5 8 -10 11 -10 2 0 4 5 4 10 0 6 -5 10 -11 10 -5 0
-7 -4 -4 -10z"/>
<path d="M4493 7425 c0 -8 4 -12 9 -9 5 3 6 10 3 15 -9 13 -12 11 -12 -6z"/>
<path d="M4459 7428 c-5 -18 -6 -38 -1 -34 7 8 12 36 6 36 -2 0 -4 -1 -5 -2z"/>
<path d="M4516 7402 c-3 -5 1 -9 9 -9 8 0 12 4 9 9 -3 4 -7 8 -9 8 -2 0 -6 -4
-9 -8z"/>
<path d="M4425 7320 c-3 -6 1 -7 9 -4 18 7 21 14 7 14 -6 0 -13 -4 -16 -10z"/>
<path d="M4496 7322 c-3 -5 1 -9 9 -9 8 0 12 4 9 9 -3 4 -7 8 -9 8 -2 0 -6 -4
-9 -8z"/>
<path d="M4505 7280 c-3 -6 1 -7 9 -4 18 7 21 14 7 14 -6 0 -13 -4 -16 -10z"/>
<path d="M4410 7260 c0 -5 5 -10 11 -10 5 0 7 5 4 10 -3 6 -8 10 -11 10 -2 0
-4 -4 -4 -10z"/>
<path d="M4466 7238 c3 -5 10 -6 15 -3 13 9 11 12 -6 12 -8 0 -12 -4 -9 -9z"/>
<path d="M4595 7219 c-3 -4 2 -6 10 -5 21 3 28 13 10 13 -9 0 -18 -4 -20 -8z"/>
<path d="M4495 7210 c-4 -6 -10 -8 -15 -5 -4 3 -7 -3 -5 -12 1 -10 -3 -25 -9
-33 -10 -13 -9 -13 7 -1 9 8 15 16 12 19 -3 3 2 14 12 24 9 10 13 18 10 18 -3
0 -9 -5 -12 -10z"/>
<path d="M4513 7192 c-8 -14 -8 -19 1 -19 7 0 13 9 13 19 1 10 1 18 0 18 -1 0
-7 -8 -14 -18z"/>
<path d="M4370 7180 c0 -5 5 -10 11 -10 5 0 7 5 4 10 -3 6 -8 10 -11 10 -2 0
-4 -4 -4 -10z"/>
<path d="M4433 7173 c0 -9 4 -10 14 -2 7 6 13 12 13 14 0 1 -6 2 -13 2 -8 0
-14 -6 -14 -14z"/>
<path d="M4546 7182 c-3 -5 1 -9 9 -9 8 0 12 4 9 9 -3 4 -7 8 -9 8 -2 0 -6 -4
-9 -8z"/>
<path d="M4587 7179 c7 -7 15 -10 18 -7 3 3 -2 9 -12 12 -14 6 -15 5 -6 -5z"/>
<path d="M4396 7138 c3 -5 10 -6 15 -3 13 9 11 12 -6 12 -8 0 -12 -4 -9 -9z"/>
<path d="M4475 7141 c-3 -5 0 -13 6 -17 7 -4 9 -3 5 4 -3 5 0 13 6 15 9 4 10
6 1 6 -6 1 -14 -3 -18 -8z"/>
<path d="M4585 7140 c-3 -6 1 -7 9 -4 18 7 21 14 7 14 -6 0 -13 -4 -16 -10z"/>
<path d="M4376 7113 c-6 -14 -5 -15 5 -6 7 7 10 15 7 18 -3 3 -9 -2 -12 -12z"/>
<path d="M4434 7113 c2 -9 8 -18 15 -19 6 -1 7 0 2 2 -6 3 -7 12 -4 20 3 8 1
14 -5 14 -6 0 -9 -8 -8 -17z"/>
<path d="M4513 7110 c-1 -11 2 -20 7 -20 4 0 7 7 6 15 -3 23 -12 26 -13 5z"/>
<path d="M4599 7113 c-13 -16 -12 -17 4 -4 16 13 21 21 13 21 -2 0 -10 -8 -17
-17z"/>
<path d="M4335 7100 c3 -5 8 -10 11 -10 2 0 4 5 4 10 0 6 -5 10 -11 10 -5 0
-7 -4 -4 -10z"/>
<path d="M4565 7100 c-3 -5 1 -20 9 -32 9 -12 16 -17 16 -11 0 7 -5 15 -11 18
-6 4 -8 13 -5 21 6 16 0 19 -9 4z"/>
<path d="M4233 7087 c0 -8 6 -14 14 -14 9 0 10 4 2 14 -6 7 -12 13 -14 13 -1
0 -2 -6 -2 -13z"/>
<path d="M4400 7080 c18 -12 30 -13 30 -2 0 4 -10 9 -22 9 -18 2 -20 0 -8 -7z"/>
<path d="M4461 7080 c-9 -5 -4 -7 13 -7 29 0 32 2 13 10 -8 3 -20 2 -26 -3z"/>
<path d="M4519 7078 c-5 -15 -9 -61 -5 -58 6 7 16 60 10 60 -2 0 -4 -1 -5 -2z"/>
<path d="M4296 7062 c-2 -4 -1 -14 4 -22 7 -11 9 -9 7 8 -1 24 -3 26 -11 14z"/>
<path d="M4359 7068 c-5 -14 -4 -58 1 -58 4 0 7 14 6 30 -1 26 -3 36 -7 28z"/>
<path d="M4384 7052 c0 -10 8 -19 17 -19 16 -2 17 0 1 18 -9 10 -17 19 -17 19
0 0 -1 -8 -1 -18z"/>
<path d="M4654 7062 c4 -3 14 -7 22 -8 9 -1 13 0 10 4 -4 3 -14 7 -22 8 -9 1
-13 0 -10 -4z"/>
<path d="M4435 7050 c3 -5 8 -10 11 -10 2 0 4 5 4 10 0 6 -5 10 -11 10 -5 0
-7 -4 -4 -10z"/>
<path d="M4170 7039 c0 -5 5 -7 10 -4 6 3 10 8 10 11 0 2 -4 4 -10 4 -5 0 -10
-5 -10 -11z"/>
<path d="M4548 7043 c6 -2 9 -10 6 -15 -4 -7 -2 -8 4 -4 18 11 14 26 -5 25
-11 0 -13 -3 -5 -6z"/>
<path d="M4986 7038 c3 -5 10 -6 15 -3 13 9 11 12 -6 12 -8 0 -12 -4 -9 -9z"/>
<path d="M4460 7036 c0 -2 7 -6 15 -10 8 -3 15 -1 15 4 0 6 -7 10 -15 10 -8 0
-15 -2 -15 -4z"/>
<path d="M4060 7020 c-8 -5 -10 -10 -5 -10 6 0 17 5 25 10 8 5 11 10 5 10 -5
0 -17 -5 -25 -10z"/>
<path d="M4430 7020 c0 -5 5 -10 10 -10 6 0 10 5 10 10 0 6 -4 10 -10 10 -5 0
-10 -4 -10 -10z"/>
<path d="M4695 7020 c-3 -5 -1 -10 4 -10 6 0 11 5 11 10 0 6 -2 10 -4 10 -3 0
-8 -4 -11 -10z"/>
<path d="M4910 7019 c0 -5 5 -7 10 -4 6 3 10 8 10 11 0 2 -4 4 -10 4 -5 0 -10
-5 -10 -11z"/>
<path d="M4397 7004 c-3 -4 -1 -16 5 -27 8 -16 8 -22 -1 -25 -6 -2 -9 -7 -7
-11 6 -9 -40 -8 -49 1 -4 4 -15 4 -24 -1 -27 -13 -116 -8 -113 8 1 7 -2 10 -8
6 -6 -3 -8 -11 -5 -16 9 -14 -19 -11 -34 4 -11 10 -13 10 -7 0 5 -8 1 -13 -9
-13 -10 0 -14 5 -9 13 6 10 4 10 -7 0 -15 -15 -53 -18 -45 -4 3 5 -2 15 -12
22 -15 13 -16 12 -4 -3 7 -9 9 -19 4 -22 -14 -8 -209 -9 -223 -1 -7 5 -10 4
-6 -1 3 -6 -27 -10 -71 -11 -42 -1 -105 -3 -139 -6 -35 -2 -63 0 -63 4 0 5 -5
9 -11 9 -5 0 -8 -4 -4 -9 3 -6 -3 -9 -12 -9 -19 1 -226 -11 -283 -17 -19 -2
-71 -6 -115 -9 -101 -8 -231 -21 -315 -31 -19 -3 -75 -9 -125 -15 -177 -21
-406 -62 -575 -102 -47 -11 -92 -21 -100 -23 -39 -9 -213 -66 -280 -91 -176
-68 -337 -179 -380 -264 -20 -40 -25 -104 -6 -93 7 4 7 2 -1 -8 -7 -8 -10 -38
-8 -74 11 -198 17 -283 19 -305 2 -14 7 -61 10 -105 4 -44 9 -93 11 -110 11
-86 46 -334 50 -360 3 -16 10 -57 16 -90 89 -524 255 -1083 438 -1479 22 -48
38 -93 34 -99 -3 -6 -1 -7 5 -3 7 4 12 3 12 -3 0 -5 3 -16 6 -24 4 -11 -8 -18
-48 -28 -29 -8 -59 -13 -65 -13 -7 1 -13 -2 -13 -7 0 -5 -7 -9 -15 -9 -17 0
-184 -55 -232 -76 -17 -8 -35 -14 -39 -14 -21 0 -304 -121 -413 -176 -68 -35
-128 -61 -134 -57 -6 3 -7 1 -3 -5 3 -6 -3 -16 -14 -22 -11 -6 -20 -9 -20 -6
0 3 -12 -6 -26 -19 -14 -13 -39 -30 -55 -37 -16 -7 -29 -17 -29 -22 0 -4 -7
-5 -16 -2 -8 3 -13 2 -10 -3 3 -5 -18 -27 -47 -49 -62 -47 -138 -120 -190
-182 -46 -56 -113 -182 -122 -232 -5 -26 -13 -38 -24 -38 -12 0 -13 -2 -3 -9
11 -7 12 -78 2 -126 -1 -5 -2 -12 -1 -15 2 -3 4 -25 6 -50 7 -77 12 -104 23
-130 5 -14 8 -28 5 -32 -2 -5 0 -8 4 -8 5 0 14 -15 21 -33 22 -61 88 -152 159
-219 18 -17 33 -38 33 -45 0 -9 5 -11 13 -7 6 4 8 3 4 -2 -4 -4 -18 -9 -29 -9
-12 0 -23 -7 -25 -15 -3 -11 -2 -11 4 -3 9 13 57 12 60 -1 1 -5 7 -12 14 -17
17 -10 21 -40 7 -56 -6 -7 -7 -13 -3 -13 4 0 14 8 21 18 11 15 13 12 11 -24
-2 -29 1 -40 10 -37 8 3 9 12 3 29 -6 15 -6 24 0 24 6 0 10 -5 10 -10 0 -14
185 -190 199 -190 4 0 15 -6 26 -13 14 -11 15 -16 5 -22 -9 -6 -11 -4 -5 5 5
8 4 11 -3 6 -5 -3 -13 0 -15 6 -4 10 -6 10 -6 0 -1 -8 9 -23 22 -34 15 -13 18
-21 10 -24 -7 -3 -13 -10 -13 -15 0 -15 18 -1 31 23 7 13 7 18 1 14 -6 -3 -13
-2 -17 4 -12 19 25 10 67 -18 40 -26 65 -60 36 -49 -7 2 -12 10 -10 16 1 7 -2
10 -8 6 -5 -3 -10 -2 -10 3 0 6 -8 9 -17 8 -10 0 -17 5 -16 12 4 19 -3 14 -22
-15 -10 -16 -12 -22 -4 -16 7 7 18 13 23 13 6 -1 0 -10 -13 -21 -13 -11 -21
-22 -18 -26 4 -3 15 5 26 18 16 20 23 22 38 12 10 -6 17 -17 15 -24 -2 -7 1
-22 7 -33 5 -12 12 -28 14 -36 4 -9 6 -7 6 7 1 12 -4 25 -9 28 -6 3 -10 14
-10 23 1 15 2 15 15 -2 7 -10 18 -15 24 -12 6 4 25 -7 42 -24 37 -35 39 -35
65 -15 13 11 14 14 4 13 -8 -2 -18 -7 -22 -13 -5 -6 -16 -1 -30 13 -13 13 -17
22 -10 22 7 0 10 5 7 10 -4 6 -16 8 -28 5 -15 -4 -18 -3 -9 3 11 7 10 11 -4
16 -9 3 -19 4 -22 1 -3 -3 0 -5 7 -5 7 0 9 -5 5 -11 -9 -16 -26 4 -19 24 6 14
11 13 43 -6 20 -12 45 -29 56 -39 10 -9 24 -14 32 -11 9 3 14 -2 14 -13 0 -9
3 -14 6 -11 4 3 16 1 28 -5 11 -7 27 -13 34 -14 8 -1 22 -10 31 -18 10 -9 21
-13 24 -9 4 3 7 2 7 -3 0 -5 10 -10 21 -11 12 -1 30 -10 40 -19 11 -9 19 -14
19 -10 0 4 9 2 20 -4 11 -6 20 -16 20 -23 0 -7 -4 -6 -10 3 -5 8 -10 10 -10 4
0 -16 10 -23 26 -17 8 3 11 10 8 15 -4 6 5 3 18 -6 14 -9 28 -13 31 -9 4 3 7
1 7 -6 0 -8 7 -11 15 -7 8 3 14 2 14 -2 -3 -19 2 -25 11 -12 6 9 10 11 10 3 0
-8 7 -10 18 -6 15 6 16 5 2 -11 -8 -11 -16 -14 -18 -7 -2 6 -8 8 -13 5 -6 -3
-18 1 -27 8 -26 23 -46 33 -38 19 4 -7 -2 -15 -16 -21 -19 -8 -17 -9 15 -6 44
4 54 -5 26 -22 -11 -7 -19 -8 -19 -2 0 5 -5 10 -11 10 -8 0 -9 -4 0 -13 6 -8
7 -18 3 -22 -4 -5 6 1 22 13 28 22 57 29 55 15 -6 -34 23 -38 36 -5 5 14 4 15
-6 5 -7 -7 -18 -13 -23 -13 -6 1 0 9 13 20 12 11 28 17 35 13 6 -4 20 -9 30
-10 24 -4 32 -11 23 -19 -4 -4 -13 -1 -21 5 -12 10 -14 8 -12 -14 2 -16 -1
-24 -8 -22 -6 2 -10 15 -9 28 2 21 1 22 -8 6 -5 -9 -7 -22 -3 -29 5 -7 2 -9
-8 -6 -8 4 -21 2 -29 -4 -11 -8 -11 -9 2 -5 9 3 27 -2 40 -10 12 -9 19 -12 16
-6 -4 6 0 13 8 17 8 3 19 -3 24 -12 9 -14 11 -14 12 -2 1 8 1 18 1 21 -1 4 10
7 24 7 l24 0 -25 -25 c-13 -14 -22 -29 -20 -33 3 -5 -3 -11 -12 -13 -10 -2 -8
-3 5 -2 12 1 25 -2 28 -6 3 -5 10 -9 17 -9 6 0 1 7 -11 16 -22 15 -22 17 -6
35 9 10 22 19 27 19 6 0 2 -9 -8 -20 -10 -11 -13 -20 -8 -20 6 0 13 7 17 15 3
8 10 15 16 15 6 0 8 -4 5 -10 -4 -6 1 -7 11 -3 13 5 15 3 9 -7 -6 -10 -4 -12
8 -7 16 6 67 -27 67 -44 0 -6 -12 -1 -26 10 -15 12 -32 21 -38 21 -12 0 43
-36 59 -38 6 -1 10 5 10 13 0 8 6 20 14 27 11 11 12 9 7 -12 -3 -14 -3 -20 0
-13 4 10 8 10 19 0 7 -7 11 -15 8 -19 -2 -5 1 -8 6 -8 16 0 13 16 -4 30 -8 7
-15 17 -15 23 0 6 11 0 25 -13 14 -13 23 -30 21 -37 -3 -7 1 -10 10 -6 9 3 14
0 12 -8 -2 -7 2 -13 9 -14 7 0 18 -9 26 -19 11 -16 15 -16 22 -5 5 8 5 11 0 7
-4 -4 -18 6 -32 22 -21 25 -22 32 -12 52 6 13 8 20 4 16 -4 -4 -17 -3 -28 3
-15 8 -18 8 -12 -1 5 -8 3 -11 -6 -8 -8 3 -13 10 -12 16 2 6 -6 9 -17 7 -12
-2 -18 0 -16 4 3 4 -1 8 -9 8 -8 0 -12 -4 -9 -9 3 -4 0 -8 -5 -8 -16 0 -13 20
4 26 8 3 20 2 27 -2 7 -5 15 -9 18 -10 19 -3 67 -18 75 -22 8 -5 41 -12 72
-14 7 -1 10 -5 7 -9 -2 -4 4 -8 13 -8 27 1 65 -7 93 -18 14 -6 31 -8 38 -6 6
3 12 1 12 -5 0 -12 -53 -10 -62 3 -5 6 -8 4 -8 -4 0 -11 -5 -10 -20 4 -11 10
-20 15 -20 10 0 -4 -7 -2 -15 5 -12 10 -15 10 -15 0 0 -10 -4 -9 -16 1 -31 26
-72 13 -45 -14 9 -9 11 -8 6 4 -4 10 0 16 10 16 10 0 14 -6 10 -14 -3 -8 -5
-17 -5 -19 0 -9 -27 -3 -38 8 -7 7 -8 17 -2 28 6 12 5 17 -4 17 -18 0 -16 -28
2 -50 11 -12 24 -16 38 -13 13 4 26 2 29 -4 8 -13 25 -13 25 1 0 5 -4 8 -9 5
-5 -3 -14 0 -20 8 -9 11 -6 14 14 14 24 0 30 -11 26 -45 -3 -19 27 -16 38 4
10 20 74 28 68 9 -2 -6 -15 -11 -29 -10 -20 1 -25 -3 -20 -14 3 -10 1 -13 -6
-8 -7 4 -12 2 -12 -3 0 -16 20 -13 26 4 4 8 10 15 16 15 5 0 6 -6 2 -12 -4 -7
-4 -10 1 -6 4 4 16 -2 26 -14 11 -11 19 -17 19 -13 0 5 -7 16 -16 26 -10 11
-12 19 -5 24 6 3 11 1 11 -4 0 -6 10 -11 23 -11 12 -1 39 -1 60 -2 30 0 35 -3
26 -14 -13 -16 -13 -16 18 -19 12 -1 20 2 17 6 -3 5 0 9 5 9 6 0 11 -7 11 -15
0 -8 4 -15 8 -15 5 0 9 7 9 15 0 8 -4 15 -9 15 -5 0 -6 5 -3 10 4 6 11 7 17 4
7 -4 8 -2 4 5 -6 9 -11 9 -22 0 -18 -14 -26 -8 -14 10 5 9 14 11 26 6 17 -7
53 -14 92 -17 6 -1 12 -5 12 -10 0 -5 11 -6 25 -4 13 3 27 1 30 -4 3 -5 12 -7
20 -3 8 3 15 1 15 -5 0 -5 13 -8 30 -7 16 1 27 -1 24 -6 -3 -5 -10 -6 -16 -3
-7 4 -8 2 -4 -5 4 -6 12 -9 17 -6 20 13 48 13 53 0 3 -8 1 -17 -4 -20 -6 -4
-10 -1 -10 4 0 12 -22 10 -31 -2 -4 -5 -16 1 -28 14 -11 12 -21 18 -21 13 0
-6 5 -15 12 -22 7 -7 8 -12 2 -12 -13 0 -35 16 -37 26 -1 5 -10 8 -19 7 -12
-2 -16 2 -12 15 5 14 4 15 -5 2 -9 -13 -11 -13 -12 0 0 10 -3 9 -8 -4 -7 -19
-61 -33 -61 -15 0 8 23 14 43 10 5 -1 6 3 2 9 -4 6 -16 8 -28 5 -18 -5 -19 -4
-7 5 13 10 12 11 -4 6 -10 -4 -24 -2 -31 4 -24 20 -28 -22 -5 -52 l21 -28 -21
0 c-12 0 -18 5 -15 10 9 14 -24 25 -37 12 -6 -6 -6 -12 3 -17 8 -5 10 -4 5 3
-4 7 -1 12 9 12 9 0 13 -5 10 -10 -8 -13 20 -24 41 -16 16 6 16 8 0 24 -22 25
-20 39 3 18 11 -10 25 -14 37 -9 16 6 17 5 6 -9 -9 -11 -10 -18 -2 -23 15 -9
42 15 36 32 -6 15 3 17 24 3 10 -6 11 -10 3 -10 -7 0 -13 -5 -13 -12 0 -9 3
-9 12 0 17 17 33 15 18 -3 -9 -10 -9 -15 -1 -15 6 0 11 5 11 10 0 6 5 10 11
10 6 0 8 -9 4 -20 -4 -12 -2 -20 5 -20 6 0 9 4 6 9 -3 5 1 14 9 21 13 11 20 9
43 -12 15 -14 35 -24 45 -23 9 2 17 -1 17 -6 0 -5 5 -9 11 -9 8 0 7 6 -2 16
-12 15 -11 16 11 10 20 -6 22 -5 10 4 -12 10 -11 11 7 7 19 -4 21 -2 11 19 -6
13 -16 24 -21 24 -5 0 -4 -7 3 -15 18 -21 3 -19 -27 5 l-25 19 39 -4 c81 -10
88 -12 86 -23 -2 -7 2 -12 7 -12 6 0 2 -10 -10 -22 -11 -12 -17 -24 -14 -27 4
-3 9 0 11 7 3 6 9 12 15 12 6 0 7 -7 4 -15 -15 -37 -16 -48 -2 -25 8 14 13 39
10 57 -3 30 -2 31 24 26 15 -3 34 -5 42 -5 8 0 22 -2 30 -5 8 -3 35 -7 60 -8
55 -3 72 -7 83 -20 6 -6 10 -6 14 2 3 8 11 10 21 5 9 -5 24 -8 32 -7 8 1 22
-2 31 -6 9 -5 20 -4 25 1 5 5 15 6 24 0 8 -5 11 -13 6 -17 -5 -4 -11 -2 -13 5
-4 9 -8 10 -18 2 -7 -6 -17 -10 -21 -9 -5 1 -15 1 -23 0 -11 -1 -10 -4 4 -14
10 -8 15 -19 11 -25 -5 -8 -2 -10 9 -6 11 5 14 2 9 -10 -3 -9 -10 -14 -14 -11
-14 9 -23 -16 -11 -28 9 -9 10 -7 5 7 -5 13 -4 17 4 12 14 -8 29 21 26 52 -2
28 10 28 37 1 16 -16 18 -23 8 -35 -6 -8 -9 -17 -6 -21 4 -3 9 2 13 11 6 16 8
16 25 0 11 -9 19 -14 19 -10 0 4 -10 16 -23 26 -12 10 -18 22 -14 27 5 4 13 0
18 -9 5 -10 16 -15 24 -11 10 3 14 0 12 -8 -2 -8 -2 -11 0 -6 3 4 10 4 16 0 7
-4 6 1 -2 10 -7 9 -9 17 -3 17 5 0 15 -6 21 -14 9 -10 6 -17 -13 -30 -14 -9
-30 -16 -35 -16 -5 0 -13 -4 -16 -10 -7 -11 23 -2 41 12 6 4 20 6 30 2 14 -4
15 -3 5 4 -9 7 -10 12 -2 16 6 4 8 12 5 18 -4 6 -1 9 7 6 9 -3 13 -17 12 -39
-1 -22 1 -29 7 -20 4 8 6 21 3 30 -5 13 -3 13 7 4 14 -13 28 -4 48 33 8 16 8
21 -3 21 -7 0 -11 -6 -9 -12 3 -7 -2 -18 -11 -25 -13 -11 -19 -11 -33 4 -16
16 -15 16 8 14 19 -2 24 1 22 14 -2 13 4 16 30 13 18 -2 33 -4 33 -5 0 -1 23
-3 52 -4 29 -1 55 -5 59 -9 12 -11 26 -8 18 5 -5 7 -3 8 6 3 7 -5 38 -9 69
-10 31 -1 56 -3 56 -4 0 -2 8 -4 18 -6 9 -2 17 1 17 6 0 6 6 7 13 2 6 -4 41
-8 77 -9 l65 -1 1 -34 c1 -40 12 -69 27 -69 5 0 3 8 -6 18 -24 26 -21 39 3 17
11 -10 20 -13 20 -7 0 7 -5 12 -11 12 -5 0 -8 4 -4 10 3 5 12 7 20 3 8 -3 15
0 15 6 0 6 1 14 3 18 1 3 -8 7 -20 8 -13 1 -19 -3 -16 -11 2 -6 0 -15 -5 -18
-5 -3 -9 7 -8 23 0 23 4 27 16 21 8 -4 21 -5 29 -2 7 2 17 -2 22 -9 5 -8 9 -9
9 -3 0 16 58 12 65 -3 5 -14 -7 -18 -19 -6 -3 4 -13 8 -21 9 -12 2 -12 -1 0
-20 8 -13 12 -26 8 -31 -5 -4 -3 -6 2 -2 6 3 19 -1 30 -9 19 -14 19 -14 -1
-30 -18 -14 -18 -15 4 -4 29 14 28 26 -3 46 -14 9 -25 21 -25 26 0 6 6 5 15
-2 10 -9 15 -9 15 -1 0 6 4 11 9 11 5 0 8 -7 7 -16 0 -9 9 -23 22 -31 14 -10
22 -11 22 -4 0 6 -8 11 -17 11 -13 0 -14 3 -5 12 9 9 18 7 40 -9 l28 -21 -1
22 c0 11 -3 26 -7 31 -3 6 1 17 10 25 14 13 15 12 9 -2 -3 -9 1 -22 9 -28 16
-14 19 -35 4 -25 -5 3 -10 1 -10 -5 0 -7 7 -9 16 -6 9 3 18 6 21 6 3 0 0 7 -7
15 -8 9 -9 15 -2 15 6 0 18 -10 26 -22 9 -12 16 -18 16 -12 0 5 -5 15 -12 22
-7 7 -8 12 -2 12 17 0 33 -22 27 -39 -4 -13 -3 -13 7 1 15 25 -16 54 -57 52
-24 -1 -30 2 -25 14 4 11 7 12 10 4 3 -10 7 -10 18 -1 11 9 14 9 14 -1 0 -10
3 -10 14 -1 10 9 16 9 21 1 5 -8 10 -8 20 0 10 8 15 8 20 -1 5 -8 10 -8 14 0
4 6 11 3 19 -9 11 -18 10 -20 -9 -17 -11 2 -24 9 -29 16 -5 10 -9 10 -14 2 -4
-6 -12 -8 -18 -5 -7 4 -8 2 -4 -4 4 -6 13 -9 21 -5 11 4 14 0 9 -13 -5 -16 -4
-16 5 -4 9 12 11 12 11 1 0 -8 -8 -20 -17 -28 -16 -13 -16 -13 5 -3 12 6 22
18 22 28 0 15 2 15 10 2 5 -8 10 -11 10 -6 0 6 9 0 20 -12 12 -12 24 -22 27
-22 3 0 -1 8 -10 18 -16 18 -14 32 5 32 5 0 6 -6 2 -12 -6 -10 -4 -10 8 0 11
9 18 10 23 2 3 -5 1 -10 -4 -10 -6 0 -11 -5 -11 -12 0 -6 9 -3 20 7 22 20 28
7 8 -14 -11 -11 -9 -11 9 0 16 10 19 16 11 26 -7 9 -7 13 0 13 6 0 18 -10 27
-22 l17 -23 -7 24 c-6 18 -4 22 6 15 8 -5 20 -9 27 -10 22 -4 42 -26 35 -38
-3 -6 -2 -8 2 -3 13 11 14 50 3 65 -7 8 -7 12 1 12 7 0 9 5 5 12 -4 7 -3 8 5
4 6 -4 9 -11 6 -16 -3 -4 2 -13 10 -20 17 -14 21 -35 5 -25 -5 3 -10 1 -10 -5
0 -7 6 -10 13 -7 6 2 11 12 11 21 -1 9 3 15 10 13 6 -3 10 -10 8 -16 -1 -7 2
-10 7 -7 5 4 11 3 14 -1 2 -5 2 -2 0 5 -1 7 1 21 6 31 7 13 6 18 -4 18 -7 0
-11 -6 -8 -14 3 -7 0 -13 -7 -13 -6 0 -9 4 -5 9 3 5 0 13 -6 17 -7 4 -9 3 -5
-4 4 -6 -1 -10 -13 -9 -10 0 -17 6 -15 12 6 14 125 15 122 0 -4 -14 40 -70 48
-62 4 3 -7 17 -22 31 -16 14 -24 26 -17 26 6 0 15 -5 18 -10 4 -6 15 -8 24 -5
15 4 17 0 16 -25 -2 -34 11 -48 28 -31 9 9 7 11 -8 6 -20 -7 -20 -6 -1 9 17
14 18 16 3 16 -22 0 -22 14 0 31 14 12 16 12 11 -2 -5 -12 -1 -15 17 -11 12 2
26 -1 29 -7 4 -5 13 -8 21 -4 11 4 14 0 10 -13 -5 -16 -4 -16 10 2 14 19 19
20 40 10 14 -6 25 -14 25 -18 0 -5 5 -8 11 -8 17 0 -1 21 -27 30 -13 5 -24 14
-24 20 0 5 16 1 35 -10 20 -11 39 -20 43 -20 4 0 -1 5 -10 11 -10 5 -18 14
-18 20 0 5 11 2 25 -7 24 -16 25 -15 19 1 -6 15 -4 16 16 5 l24 -13 -27 -14
c-32 -16 -34 -22 -8 -20 11 0 17 5 15 9 -5 7 10 12 28 9 4 0 5 6 2 14 -4 8
-10 15 -15 15 -11 0 -8 20 5 35 11 13 66 17 66 5 0 -6 -3 -9 -7 -9 -21 3 -31
-3 -36 -20 -4 -15 -1 -18 12 -13 14 5 14 3 3 -11 -14 -16 -8 -42 8 -32 5 3 11
-2 13 -10 3 -11 4 -10 3 2 -1 10 -8 17 -14 16 -13 -3 -16 9 -5 20 3 4 12 2 20
-5 10 -8 17 -8 25 0 14 14 32 16 24 3 -3 -4 6 -13 20 -20 23 -10 26 -9 31 9 3
11 8 18 12 16 4 -3 13 0 21 6 12 8 11 9 -3 4 -12 -4 -17 -2 -14 6 2 7 13 12
23 10 18 -3 18 -3 -1 12 -11 8 -15 16 -8 16 6 0 20 -8 29 -17 17 -17 18 -17
11 0 -8 21 6 22 27 1 9 -8 16 -11 16 -5 0 6 -9 15 -20 21 -11 6 -20 16 -19 23
0 9 2 9 6 -1 5 -13 29 -16 36 -4 2 4 2 2 1 -5 -2 -7 1 -15 6 -18 5 -3 7 -12 3
-20 -3 -8 -1 -15 5 -15 11 0 11 18 -1 36 -4 8 5 11 28 10 30 -1 33 -4 29 -22
-3 -12 -1 -25 5 -28 7 -5 10 1 8 15 -1 12 3 24 10 26 6 2 10 -4 9 -14 -2 -10
-1 -12 1 -5 3 6 9 12 14 12 6 0 8 -4 5 -9 -8 -12 21 -34 34 -26 7 4 7 12 0 25
-11 20 5 70 23 70 6 0 6 -5 0 -12 -8 -12 -9 -19 -5 -55 1 -7 7 -13 13 -13 5 0
7 4 4 10 -30 49 -4 67 102 73 29 1 53 5 53 8 0 4 10 5 23 5 12 -1 27 0 32 3 6
3 26 6 45 7 19 1 35 3 35 4 0 1 9 4 21 5 36 4 45 -26 16 -55 -21 -21 -24 -22
-17 -5 12 34 11 50 -5 50 -8 0 -13 -7 -11 -15 3 -15 4 -44 2 -68 0 -7 -5 -11
-9 -8 -5 3 -9 -1 -9 -8 0 -8 6 -12 14 -9 7 3 13 12 13 20 0 8 5 11 13 7 6 -4
9 -4 5 1 -8 9 9 35 22 35 4 0 10 -9 13 -21 5 -17 9 -19 26 -9 12 6 21 15 21
20 0 6 5 10 11 10 5 0 7 -4 4 -10 -4 -6 1 -7 11 -3 11 4 13 8 6 11 -7 2 -10 8
-6 13 10 17 -5 9 -33 -17 l-27 -25 -8 22 c-5 13 -4 27 2 33 15 15 12 29 -5 22
-8 -3 -15 -1 -15 4 0 6 6 10 13 11 6 1 24 2 38 3 16 2 26 -2 26 -11 0 -8 -6
-12 -14 -9 -13 5 -39 -31 -29 -41 3 -3 10 5 15 18 5 13 10 18 10 10 1 -10 4
-11 15 -2 11 10 17 7 29 -10 16 -23 12 -53 -6 -42 -6 4 -7 1 -2 -7 13 -21 37
18 25 40 -7 13 -4 22 10 35 21 19 28 7 8 -13 -9 -9 -9 -15 1 -24 11 -11 13
-10 8 4 -3 9 1 22 10 30 15 11 16 11 10 -5 -9 -23 1 -21 25 6 18 20 19 20 12
2 -10 -29 -8 -65 6 -79 8 -8 9 -4 1 17 -15 38 -14 39 12 27 19 -9 20 -9 6 2
-16 13 -19 51 -6 64 4 4 7 3 7 -3 0 -5 7 -10 15 -10 8 0 12 4 9 9 -3 4 0 8 5
8 6 0 11 -6 11 -12 0 -20 68 -70 76 -56 4 7 3 8 -4 4 -7 -4 -12 -3 -12 2 0 5
-11 15 -25 22 -14 7 -25 20 -25 29 0 14 2 14 11 1 9 -13 10 -12 5 3 -6 19 2
21 24 7 10 -6 11 -10 3 -10 -7 0 -13 -5 -13 -11 0 -5 4 -7 10 -4 6 3 10 1 10
-4 0 -6 5 -11 11 -11 8 0 8 5 -1 15 -10 12 -9 16 3 21 18 7 37 -2 37 -18 0 -6
-7 -5 -17 3 -16 12 -17 12 -6 -2 7 -9 9 -20 5 -25 -4 -4 1 -3 10 4 14 11 18
10 27 -5 6 -10 11 -14 11 -10 0 5 -10 22 -21 39 -21 29 -21 30 -2 24 19 -6 91
37 86 52 -2 4 3 8 10 8 6 1 14 3 17 4 25 9 47 7 47 -4 0 -11 -11 -13 -41 -11
-24 3 -35 1 -27 -4 9 -6 10 -11 2 -15 -14 -9 -14 -26 0 -26 5 0 8 4 4 9 -3 5
-1 12 4 15 9 6 24 -30 22 -54 -2 -13 -1 -13 8 0 7 9 7 18 1 24 -13 13 -13 46
1 46 5 0 8 -4 5 -9 -3 -5 3 -20 14 -33 11 -14 16 -29 12 -34 -4 -5 0 -3 9 4 9
6 19 9 22 5 4 -3 7 -1 7 6 0 7 -6 11 -14 8 -9 -3 -21 4 -30 19 -9 13 -12 24
-7 24 6 0 15 -8 20 -17 6 -10 11 -13 11 -6 0 6 -5 15 -10 18 -6 4 -7 11 -4 17
4 6 15 -3 26 -20 12 -19 25 -29 34 -25 17 6 17 13 0 35 -10 13 -15 15 -24 6
-9 -9 -12 -9 -12 0 0 7 11 17 25 24 13 6 22 15 19 19 -3 5 0 9 5 9 14 0 14
-17 1 -25 -10 -6 -4 -23 23 -59 11 -16 15 -16 22 -5 5 8 5 11 0 7 -4 -4 -14 0
-21 10 -16 21 -18 40 -3 25 9 -9 17 -6 32 8 11 10 27 19 34 19 8 0 13 6 12 13
-3 23 1 37 11 37 5 0 8 -13 6 -29 -2 -16 1 -35 6 -43 8 -10 9 -10 5 2 -5 16
17 43 27 33 3 -3 1 -14 -4 -24 -6 -10 -6 -20 -2 -23 11 -7 40 -2 49 9 4 4 3 5
-4 2 -6 -4 -14 -1 -16 5 -4 10 -6 10 -6 1 -1 -7 -6 -13 -11 -13 -7 0 -7 6 -1
18 6 12 5 23 -5 37 -8 10 -14 13 -14 7 0 -7 -5 -12 -10 -12 -6 0 -6 7 1 18 7
10 18 19 25 19 7 0 11 -4 8 -9 -3 -4 0 -8 6 -8 6 0 8 -5 5 -10 -3 -6 -1 -10 5
-10 6 0 8 10 4 24 -5 22 -3 24 17 19 13 -4 20 -2 16 3 -3 6 6 11 20 12 14 1
31 7 38 12 7 6 20 8 29 4 9 -4 16 -1 16 6 0 7 6 10 14 7 7 -3 19 0 25 6 10 10
16 -1 12 -25 0 -5 4 -8 9 -8 6 0 10 4 10 8 0 4 12 8 27 7 19 0 31 -8 40 -24
12 -25 43 -38 43 -19 0 6 -7 7 -16 4 -10 -4 -15 -2 -12 6 5 16 -39 60 -47 47
-8 -12 -25 -12 -25 1 0 6 7 10 15 10 9 0 18 6 21 14 3 8 13 13 22 11 9 -1 23
2 30 8 8 6 12 6 12 -1 0 -6 -3 -12 -7 -15 -5 -2 -2 -2 5 -1 6 2 12 -1 12 -6 0
-6 9 -10 20 -10 11 0 20 4 20 10 0 5 -7 6 -17 3 -12 -5 -14 -3 -8 7 5 9 4 11
-3 6 -7 -4 -12 -1 -12 9 0 13 4 14 21 4 15 -8 19 -8 15 0 -7 12 33 32 47 24 4
-2 7 1 7 6 0 6 5 11 11 11 5 0 7 -6 4 -12 -4 -7 0 -5 8 5 8 10 23 19 33 21 11
3 28 7 39 11 16 6 15 3 -5 -13 -16 -13 -27 -17 -31 -10 -4 6 -11 2 -18 -11
-13 -24 -6 -45 11 -35 7 5 9 1 5 -9 -4 -11 -2 -14 9 -10 27 10 12 29 -19 24
-5 -1 -7 4 -4 11 5 14 9 14 42 3 16 -5 17 -5 5 4 -8 5 -11 14 -6 18 4 4 16 -2
26 -14 9 -12 20 -19 24 -16 3 4 6 1 6 -5 0 -5 -6 -13 -12 -15 -10 -4 -10 -6
-1 -6 26 -2 24 22 -3 45 -24 21 -26 24 -9 22 11 -2 25 -9 31 -17 13 -17 36 -6
32 16 -2 9 3 18 10 20 8 3 10 -2 6 -14 -5 -17 -5 -17 6 0 6 9 16 15 22 11 6
-4 5 -10 -3 -15 -10 -6 -10 -9 -2 -9 29 0 24 23 -11 50 -15 11 -18 11 -12 1 7
-10 3 -12 -15 -7 -13 3 -18 3 -11 0 6 -3 9 -10 6 -16 -4 -6 -10 -5 -16 3 -8
11 -9 10 -5 -3 4 -12 0 -16 -14 -15 -20 1 -23 31 -4 33 6 0 24 6 40 13 17 7
35 14 40 15 6 1 19 7 30 13 11 5 26 8 34 5 8 -2 11 0 8 5 -3 5 7 14 24 20 20
8 31 8 36 1 4 -7 1 -8 -7 -3 -9 6 -11 4 -5 -5 5 -8 4 -11 -1 -7 -6 3 -16 1
-24 -4 -12 -8 -11 -9 4 -7 10 2 21 -3 24 -11 3 -9 0 -11 -8 -6 -9 5 -11 4 -6
-3 12 -19 29 -14 23 8 -6 22 17 48 28 30 3 -5 1 -10 -4 -10 -6 0 -11 -5 -11
-11 0 -6 13 -1 29 11 28 19 30 19 40 3 6 -10 10 -13 10 -8 1 6 -9 21 -20 35
-16 21 -19 22 -17 6 2 -10 -3 -21 -10 -23 -8 -3 -10 2 -6 14 3 10 2 14 -3 8
-10 -13 -33 -18 -33 -7 0 13 68 40 80 32 7 -4 11 -10 11 -14 -3 -24 1 -27 13
-11 8 11 12 23 10 27 -7 11 1 10 31 -4 14 -6 25 -15 25 -20 0 -5 -6 -6 -12 -2
-7 4 -9 3 -5 -1 4 -5 14 -10 22 -11 22 -3 0 33 -25 41 -12 4 -17 11 -13 18 4
7 -4 4 -19 -5 -14 -9 -28 -14 -32 -11 -3 3 10 14 29 24 42 23 46 23 39 5 -6
-16 31 -41 46 -31 13 8 1 35 -16 35 -20 0 -17 19 4 27 9 4 19 9 22 13 3 4 20
14 38 23 30 14 33 14 42 -3 7 -14 5 -22 -13 -34 -18 -13 -18 -15 -2 -7 11 5
29 17 40 26 17 14 17 16 3 11 -20 -6 -25 9 -7 20 7 4 19 -3 29 -16 13 -17 19
-20 25 -10 5 9 4 11 -3 6 -7 -4 -13 -2 -13 3 -1 6 -2 17 -3 24 -1 6 2 15 7 18
5 4 4 10 -2 13 -6 4 -11 3 -11 -2 0 -5 -11 -17 -25 -26 -22 -14 -25 -15 -25
-1 0 8 5 15 12 15 6 0 19 7 28 15 15 14 20 13 45 -10 16 -13 31 -22 33 -20 2
2 -9 15 -24 29 -23 20 -25 25 -11 26 9 0 17 -5 17 -12 0 -6 3 -8 6 -5 4 4 1
14 -7 24 -9 11 -10 14 -1 9 6 -4 12 -4 12 1 0 4 25 26 55 48 30 22 55 43 55
48 0 5 6 4 14 -3 8 -6 12 -19 8 -28 -3 -9 6 -4 21 12 15 16 27 23 27 16 0 -7
3 -11 6 -7 3 3 3 11 -1 17 -5 8 -12 7 -24 -4 -10 -9 -21 -13 -24 -9 -10 10 -8
25 2 19 5 -3 11 3 14 14 3 11 14 19 26 19 12 1 31 1 43 1 18 1 19 3 8 10 -8 5
-21 5 -31 -1 -11 -6 -20 -5 -24 1 -3 5 0 10 7 10 14 0 48 34 48 49 0 12 39 45
46 38 3 -3 -4 -10 -15 -17 -12 -6 -21 -16 -20 -23 3 -26 -2 -38 -13 -31 -7 5
-8 3 -3 -6 6 -10 11 -9 21 4 7 10 10 24 7 32 -3 8 1 14 11 14 9 0 16 5 16 11
0 5 4 8 9 4 5 -3 13 0 17 7 4 7 4 10 -1 6 -4 -4 -14 -3 -21 3 -10 8 -6 20 21
58 39 54 75 89 75 73 0 -6 -5 -13 -10 -15 -6 -3 -5 -4 2 -3 6 1 15 15 19 30 5
16 17 37 28 48 12 10 21 23 21 28 0 6 5 10 11 10 5 0 7 -4 4 -10 -3 -5 -1 -10
4 -10 6 0 10 10 8 21 -1 14 4 23 16 25 11 1 22 6 25 10 4 4 -1 4 -12 0 -14 -5
-17 -3 -12 10 3 8 6 18 6 20 0 3 5 2 12 -2 8 -5 9 -2 5 9 -3 10 -2 17 3 17 6
0 9 6 7 12 -1 7 3 12 9 11 8 -1 10 6 6 19 -3 13 -1 19 5 15 6 -4 11 -1 10 6
-1 35 4 48 16 41 9 -6 9 -4 -1 8 -7 9 -9 19 -5 21 10 6 15 55 16 149 1 44 4
65 11 61 6 -3 5 0 -1 8 -7 7 -13 26 -13 42 0 34 -19 107 -32 122 -4 5 -8 17
-8 27 0 10 -4 18 -10 18 -5 0 -10 9 -10 20 0 11 -4 20 -10 20 -5 0 -10 5 -10
11 0 6 -14 29 -31 50 -17 21 -29 39 -26 39 8 0 -139 143 -179 175 -21 17 -75
54 -119 83 -44 30 -83 59 -87 65 -4 7 -8 9 -8 4 0 -4 -24 6 -52 23 -53 31
-294 150 -304 150 -4 0 -20 6 -37 14 -18 8 -59 25 -92 37 -33 13 -62 27 -63
32 -2 4 -8 5 -13 2 -4 -3 -30 3 -56 13 -26 11 -73 27 -103 37 -30 9 -62 19
-70 23 -21 8 -28 9 -46 11 -9 0 -12 6 -8 13 4 7 3 8 -4 4 -6 -4 -48 3 -92 15
-63 18 -80 26 -80 41 0 10 5 18 10 18 6 0 10 6 10 13 0 8 7 29 16 47 15 30 19
32 53 25 81 -14 103 -16 266 -20 120 -2 195 1 255 11 83 14 205 49 225 64 6 4
21 11 33 15 81 24 221 139 285 231 58 84 107 199 122 285 3 18 7 35 9 38 16
26 23 320 11 426 -3 28 -8 68 -11 90 -20 168 -94 337 -188 431 -110 110 -238
156 -444 158 l-123 1 6 45 c3 25 8 56 10 70 2 14 7 52 10 85 4 33 8 71 10 85
1 14 6 61 10 105 4 44 9 96 11 115 2 19 6 107 9 196 7 184 3 203 -64 271 -110
113 -321 212 -615 288 -116 30 -275 65 -361 79 -16 3 -57 9 -90 15 -33 6 -82
13 -110 16 -27 3 -61 8 -75 10 -14 3 -47 7 -75 10 -27 3 -66 7 -85 10 -66 8
-135 15 -200 20 -36 3 -81 8 -100 10 -19 2 -75 7 -125 10 -49 3 -121 8 -160
10 -151 11 -412 21 -648 26 -88 1 -96 3 -85 18 10 12 8 12 -8 -2 -23 -19 -71
-17 -66 3 1 6 -2 9 -8 5 -6 -3 -8 -10 -5 -14 6 -11 -107 -7 -124 4 -9 5 -12 4
-8 -2 4 -5 -6 -10 -23 -10 -22 0 -32 7 -40 26 -8 22 -10 22 -6 4 2 -13 1 -23
-2 -24 -4 0 -15 -2 -24 -4 -19 -3 -24 10 -8 20 6 3 10 11 10 16 0 6 -4 7 -10
4 -5 -3 -10 -1 -10 4 0 6 -5 11 -11 11 -8 0 -8 -4 0 -14 12 -15 4 -49 -10 -41
-4 3 -6 12 -3 19 3 8 0 17 -7 22 -7 4 -10 3 -6 -4 9 -13 -2 -42 -15 -42 -6 0
-7 7 -4 16 3 8 1 25 -5 36 -10 18 -8 19 13 13 18 -5 20 -4 8 4 -17 12 -24 13
-33 5z m3302 -1974 c136 -36 203 -178 197 -415 -5 -204 -75 -318 -246 -402
-96 -47 -104 -50 -170 -63 -30 -5 -66 -12 -80 -15 -14 -3 -62 -8 -107 -11
l-82 -6 9 29 c4 15 24 78 44 138 66 199 153 528 181 685 11 62 15 69 43 72 49
6 170 -1 211 -12z m78 -3606 c-7 -7 -37 7 -37 17 0 6 9 5 21 -1 11 -7 19 -14
16 -16z m-377 -174 c0 -5 -5 -10 -11 -10 -5 0 -7 5 -4 10 3 6 8 10 11 10 2 0
4 -4 4 -10z m-5590 -23 c12 3 20 0 20 -6 0 -7 5 -9 10 -6 6 3 10 -2 11 -12 0
-10 3 -13 6 -5 2 6 9 12 14 12 6 0 8 -4 5 -9 -3 -5 1 -12 10 -15 8 -3 13 -2
10 2 -3 5 1 9 9 9 10 0 11 -5 4 -19 -9 -17 -11 -17 -42 -2 -18 10 -36 23 -42
30 -13 15 -61 12 -57 -4 3 -18 -6 -14 -18 8 -8 16 -8 18 4 14 8 -3 18 0 22 7
5 9 9 9 11 2 2 -6 13 -9 23 -6z m127 -67 c0 -28 -2 -29 -15 -16 -13 12 -13 18
-2 30 17 21 17 21 17 -14z m5087 5 c-4 -8 -8 -15 -10 -15 -2 0 -4 7 -4 15 0 8
4 15 10 15 5 0 7 -7 4 -15z m-4974 -45 c0 -5 -4 -10 -10 -10 -5 0 -10 5 -10
10 0 6 5 10 10 10 6 0 10 -4 10 -10z m173 -66 c-8 -22 -18 -17 -19 11 -2 20 1
23 11 15 8 -6 11 -18 8 -26z m4494 21 c0 -8 -3 -13 -5 -10 -3 3 -10 -3 -17
-11 -6 -9 -23 -18 -37 -19 -23 -3 -24 -1 -15 19 8 16 18 22 34 20 13 -1 23 2
23 7 0 5 4 9 8 9 5 0 9 -7 9 -15z m-4334 -10 c20 -4 40 -11 43 -16 3 -5 10 -7
15 -4 5 4 9 2 9 -4 0 -11 -39 -9 -59 4 -10 5 -12 4 -7 -3 4 -7 2 -12 -3 -12
-6 0 -11 7 -11 15 0 8 -5 15 -11 15 -5 0 -8 -4 -5 -8 6 -10 -30 -9 -40 0 -9
10 4 27 19 24 6 -2 29 -6 50 -11z m4212 -18 c-30 -17 -44 -17 -38 0 3 8 12 12
19 9 7 -3 16 -1 20 5 3 6 9 7 12 4 4 -4 -2 -12 -13 -18z m-152 -26 c3 9 6 10
6 2 1 -12 -36 -43 -51 -43 -5 0 -8 8 -8 17 0 15 -2 15 -14 -2 -12 -17 -16 -17
-30 -6 -14 12 -16 12 -10 -4 6 -15 4 -16 -15 -5 -16 8 -26 8 -35 1 -7 -6 -16
-8 -19 -4 -12 11 -8 19 11 20 19 2 82 10 97 13 23 5 36 -1 29 -12 -4 -8 -3
-10 2 -5 5 5 10 13 10 18 3 22 5 23 13 10 7 -11 9 -11 14 0z m-3998 -11 c-3
-5 -11 -10 -16 -10 -6 0 -7 5 -4 10 3 6 11 10 16 10 6 0 7 -4 4 -10z m95 -10
c12 -7 10 -9 -8 -7 -12 0 -22 5 -22 9 0 11 12 10 30 -2z m4075 1 c3 -5 1 -12
-4 -15 -5 -3 -11 1 -15 9 -6 16 9 21 19 6z m-365 -24 c0 -5 -6 -7 -12 -4 -7 2
-23 -4 -35 -15 -17 -16 -25 -18 -41 -9 -14 7 -23 8 -27 1 -9 -15 -22 -12 -22
5 0 9 6 14 13 11 8 -3 16 -1 20 5 3 5 13 7 22 5 10 -3 23 -1 31 3 18 12 51 10
51 -2z m-3645 -26 c-3 -6 -11 -11 -17 -11 -6 0 -6 6 2 15 14 17 26 13 15 -4z
m3502 -13 c3 -17 1 -19 -11 -9 -8 7 -12 19 -9 27 7 18 16 10 20 -18z m-3289 9
c8 -10 6 -16 -9 -25 -21 -14 -25 -3 -6 18 10 12 9 12 -5 1 -17 -13 -26 -2 -11
12 10 10 19 8 31 -6z m-44 -13 c10 -25 1 -27 -19 -4 -15 17 -16 20 -3 20 9 0
19 -7 22 -16z m3196 -14 c0 -5 -2 -10 -4 -10 -3 0 -8 5 -11 10 -3 6 -1 10 4
10 6 0 11 -4 11 -10z m-2508 -40 c-4 -12 -2 -13 9 -2 15 14 33 16 25 3 -4 -5
0 -12 6 -15 7 -3 4 -4 -7 -1 -11 2 -27 0 -35 -5 -9 -5 -19 -5 -27 1 -8 7 -18
7 -31 0 -16 -8 -21 -7 -26 5 -3 9 -13 14 -21 10 -15 -5 -29 7 -19 17 3 3 34 5
69 4 51 -2 61 -5 57 -17z m2102 9 c4 6 16 11 28 11 16 0 19 -5 15 -22 -3 -12
-1 -30 4 -41 9 -15 8 -18 -3 -14 -7 2 -12 10 -10 17 1 6 -11 17 -28 23 -16 6
-30 18 -30 27 0 12 2 12 9 1 6 -9 11 -10 15 -2z m-2279 -17 c-3 -3 -11 0 -18
7 -9 10 -8 11 6 5 10 -3 15 -9 12 -12z m2215 8 c0 -5 -2 -10 -4 -10 -3 0 -8 5
-11 10 -3 6 -1 10 4 10 6 0 11 -4 11 -10z m30 0 c0 -5 -4 -10 -10 -10 -5 0
-10 5 -10 10 0 6 5 10 10 10 6 0 10 -4 10 -10z m-120 -11 c0 -4 -15 -6 -34 -5
-25 2 -33 0 -29 -10 3 -8 10 -11 17 -7 7 5 7 2 -1 -8 -7 -8 -16 -26 -21 -38
l-9 -24 -21 23 c-18 19 -24 21 -37 10 -13 -11 -19 -10 -35 5 -11 10 -17 22
-13 28 3 5 12 -1 20 -14 13 -23 14 -23 8 -1 -4 12 -2 22 4 22 5 0 11 -8 13
-17 3 -15 5 -14 10 5 3 12 2 20 -2 17 -5 -3 -12 0 -15 6 -5 7 0 10 11 7 11 -2
18 -10 17 -19 -2 -8 6 -20 17 -27 11 -7 20 -9 21 -5 0 5 2 16 4 26 2 9 -1 15
-6 11 -5 -3 -6 -10 -3 -16 4 -6 1 -9 -6 -6 -8 2 -14 13 -15 24 -1 16 6 19 52
20 29 0 53 -3 53 -7z m-243 -19 c-1 -11 -5 -20 -10 -20 -5 0 -6 8 -3 18 4 10
-2 7 -13 -8 -18 -22 -20 -23 -27 -7 -6 17 -7 17 -20 0 -13 -17 -15 -17 -27 -1
-13 16 -15 16 -25 -6 -11 -24 -52 -30 -59 -9 -3 7 6 10 22 9 14 -2 28 1 32 7
4 6 1 7 -7 2 -9 -5 -11 -4 -6 3 4 7 3 12 -3 12 -5 0 -12 -4 -16 -9 -3 -6 -14
-8 -25 -6 -13 2 -18 0 -14 -7 4 -6 1 -9 -6 -6 -24 8 -23 28 2 28 83 0 178 7
184 13 13 13 23 7 21 -13z m-887 -14 c-6 -6 -5 -15 2 -23 16 -19 4 -27 -22
-13 -16 9 -25 9 -36 -1 -8 -6 -14 -8 -14 -4 0 4 7 13 17 20 13 9 13 14 3 20
-9 5 -11 4 -6 -3 8 -14 4 -15 -18 -6 -31 12 -16 21 34 20 30 -1 45 -5 40 -10z
m240 4 c0 10 3 10 15 0 11 -9 15 -9 15 -1 0 9 5 9 20 1 15 -8 20 -8 20 2 0 9
3 9 10 -2 15 -22 12 -33 -6 -26 -9 4 -23 1 -30 -5 -11 -9 -14 -8 -14 1 0 7 -7
10 -15 7 -8 -4 -17 -2 -21 4 -3 6 -12 3 -21 -8 -8 -10 -12 -13 -9 -6 4 6 1 15
-5 19 -8 5 -7 9 2 15 8 4 19 3 26 -3 9 -7 13 -7 13 2z m114 -13 c-3 -7 2 -3
11 8 17 20 17 20 11 -5 l-7 -25 16 25 c9 14 14 17 11 8 -3 -10 -1 -20 4 -23
17 -11 11 -27 -7 -20 -10 4 -24 8 -31 9 -17 3 -33 27 -26 38 8 13 25 -2 18
-15z m236 13 c0 -5 5 -10 11 -10 5 0 8 4 5 9 -3 5 6 9 20 9 13 0 23 -5 21 -11
-5 -16 -55 -17 -68 -1 -8 10 -8 14 0 14 6 0 11 -4 11 -10z"/>
<path d="M3374 882 c4 -3 14 -7 22 -8 9 -1 13 0 10 4 -4 3 -14 7 -22 8 -9 1
-13 0 -10 -4z"/>
<path d="M3420 886 c0 -2 8 -10 18 -17 15 -13 16 -12 3 4 -13 16 -21 21 -21
13z"/>
<path d="M5075 840 c3 -5 8 -10 11 -10 2 0 4 5 4 10 0 6 -5 10 -11 10 -5 0 -7
-4 -4 -10z"/>
<path d="M4247 823 c3 -7 6 -13 8 -13 2 0 5 6 8 13 3 8 -1 14 -8 14 -7 0 -11
-6 -8 -14z"/>
<path d="M4490 7000 c0 -5 5 -10 10 -10 6 0 10 5 10 10 0 6 -4 10 -10 10 -5 0
-10 -4 -10 -10z"/>
<path d="M5000 7000 c-9 -6 -10 -10 -3 -10 6 0 15 5 18 10 8 12 4 12 -15 0z"/>
<path d="M5230 7006 c0 -2 7 -7 16 -10 8 -3 12 -2 9 4 -6 10 -25 14 -25 6z"/>
<path d="M3936 6982 c-3 -5 1 -9 9 -9 8 0 12 4 9 9 -3 4 -7 8 -9 8 -2 0 -6 -4
-9 -8z"/>
<path d="M3970 6979 c0 -5 5 -7 10 -4 6 3 10 8 10 11 0 2 -4 4 -10 4 -5 0 -10
-5 -10 -11z"/>
<path d="M4355 6979 c-18 -9 -18 -9 3 -5 15 3 22 0 19 -7 -3 -7 -10 -11 -16
-9 -7 1 -9 -3 -6 -9 5 -8 12 -6 23 5 21 20 5 37 -23 25z"/>
<path d="M4535 6980 c-3 -6 1 -7 9 -4 18 7 21 14 7 14 -6 0 -13 -4 -16 -10z"/>
<path d="M4705 6980 c-3 -6 1 -7 9 -4 18 7 21 14 7 14 -6 0 -13 -4 -16 -10z"/>
<path d="M4855 6981 c-3 -5 -2 -12 3 -15 5 -3 9 1 9 9 0 17 -3 19 -12 6z"/>
<path d="M4890 6980 c0 -5 5 -10 11 -10 5 0 7 5 4 10 -3 6 -8 10 -11 10 -2 0
-4 -4 -4 -10z"/>
<path d="M5034 6960 c0 -13 4 -16 10 -10 7 7 7 13 0 20 -6 6 -10 3 -10 -10z"/>
<path d="M4555 6960 c3 -5 8 -10 11 -10 2 0 4 5 4 10 0 6 -5 10 -11 10 -5 0
-7 -4 -4 -10z"/>
<path d="M4606 6958 c3 -5 10 -6 15 -3 13 9 11 12 -6 12 -8 0 -12 -4 -9 -9z"/>
<path d="M4936 6953 c-6 -14 -5 -15 5 -6 7 7 10 15 7 18 -3 3 -9 -2 -12 -12z"/>
<path d="M7670 3479 c0 -5 5 -7 10 -4 6 3 10 8 10 11 0 2 -4 4 -10 4 -5 0 -10
-5 -10 -11z"/>
<path d="M435 2240 c3 -5 8 -10 11 -10 2 0 4 5 4 10 0 6 -5 10 -11 10 -5 0 -7
-4 -4 -10z"/>
<path d="M473 2205 c0 -8 4 -12 9 -9 5 3 6 10 3 15 -9 13 -12 11 -12 -6z"/>
<path d="M456 2082 c-2 -4 -1 -14 4 -22 7 -11 9 -9 7 8 -1 24 -3 26 -11 14z"/>
<path d="M536 2047 c3 -10 9 -15 12 -12 3 3 0 11 -7 18 -10 9 -11 8 -5 -6z"/>
<path d="M570 2040 c8 -5 20 -10 25 -10 6 0 3 5 -5 10 -8 5 -19 10 -25 10 -5
0 -3 -5 5 -10z"/>
<path d="M8426 2038 c3 -5 10 -6 15 -3 13 9 11 12 -6 12 -8 0 -12 -4 -9 -9z"/>
<path d="M8390 2022 c0 -5 7 -9 15 -9 8 0 12 4 9 9 -3 4 -9 8 -15 8 -5 0 -9
-4 -9 -8z"/>
<path d="M529 2003 c-13 -16 -12 -17 4 -4 9 7 17 15 17 17 0 8 -8 3 -21 -13z"/>
<path d="M598 2013 c7 -3 16 -2 19 1 4 3 -2 6 -13 5 -11 0 -14 -3 -6 -6z"/>
<path d="M556 2002 c-3 -5 1 -9 9 -9 8 0 12 4 9 9 -3 4 -7 8 -9 8 -2 0 -6 -4
-9 -8z"/>
<path d="M8496 2002 c-3 -5 1 -9 9 -9 8 0 12 4 9 9 -3 4 -7 8 -9 8 -2 0 -6 -4
-9 -8z"/>
<path d="M595 1981 c6 -11 4 -13 -7 -8 -17 6 -19 -16 -3 -30 4 -5 5 -2 0 6 -6
11 -4 13 7 8 17 -6 19 16 3 30 -4 5 -5 2 0 -6z"/>
<path d="M630 1971 c-7 -14 -7 -22 0 -26 8 -5 7 -12 -1 -23 -9 -11 -6 -11 7 2
13 12 15 20 7 23 -7 2 -9 11 -6 20 5 13 9 11 25 -8 18 -22 19 -22 9 -2 -16 32
-29 36 -41 14z"/>
<path d="M8395 1942 c3 -3 -3 -15 -12 -26 -13 -15 -10 -14 10 3 32 29 31 28
12 28 -8 0 -13 -3 -10 -5z"/>
<path d="M8304 1925 c-10 -8 -14 -15 -9 -15 6 0 3 -5 -5 -11 -13 -9 -13 -10 0
-6 8 2 14 10 13 16 -2 6 4 11 12 11 8 0 15 5 15 10 0 13 -3 13 -26 -5z"/>
<path d="M500 1920 c-9 -6 -10 -10 -3 -10 6 0 15 5 18 10 8 12 4 12 -15 0z"/>
<path d="M580 1905 c0 -2 6 -8 13 -14 10 -8 14 -7 14 2 0 8 -6 14 -14 14 -7 0
-13 -1 -13 -2z"/>
<path d="M670 1906 c0 -4 6 -13 13 -21 11 -11 16 -9 27 9 12 18 11 19 -2 9
-11 -10 -17 -10 -26 -1 -7 7 -12 9 -12 4z"/>
<path d="M8456 1902 c-3 -5 1 -9 9 -9 8 0 12 4 9 9 -3 4 -7 8 -9 8 -2 0 -6 -4
-9 -8z"/>
<path d="M651 1874 c0 -11 3 -14 6 -6 3 7 2 16 -1 19 -3 4 -6 -2 -5 -13z"/>
<path d="M8303 1877 c-3 -6 -1 -7 5 -3 15 9 15 1 1 -27 -9 -20 -9 -20 4 -5 8
10 16 16 18 13 3 -2 5 4 5 14 0 19 -23 24 -33 8z"/>
<path d="M713 1855 c0 -13 3 -22 8 -20 9 6 8 45 -2 45 -4 0 -6 -11 -6 -25z"/>
<path d="M600 1855 c-7 -9 -11 -17 -9 -20 3 -2 10 5 17 15 14 24 10 26 -8 5z"/>
<path d="M670 1860 c0 -6 7 -10 15 -10 8 0 15 2 15 4 0 2 -7 6 -15 10 -8 3
-15 1 -15 -4z"/>
<path d="M556 1847 c3 -10 9 -15 12 -12 3 3 0 11 -7 18 -10 9 -11 8 -5 -6z"/>
<path d="M634 1834 c1 -8 4 -15 7 -16 2 -2 3 -1 2 1 -2 2 2 9 7 16 7 8 5 12
-4 12 -8 0 -13 -6 -12 -13z"/>
<path d="M663 1818 c-3 -6 -1 -8 5 -4 5 3 13 0 15 -6 4 -10 6 -10 6 0 1 8 6
10 14 6 6 -4 8 -3 4 1 -12 13 -36 15 -44 3z"/>
<path d="M8273 1808 c-2 -18 0 -20 7 -8 12 18 13 30 2 30 -4 0 -9 -10 -9 -22z"/>
<path d="M600 1805 c0 -2 6 -8 13 -14 10 -8 14 -7 14 2 0 8 -6 14 -14 14 -7 0
-13 -1 -13 -2z"/>
<path d="M717 1795 c-4 -8 -1 -17 5 -21 7 -4 8 -3 4 4 -4 7 -2 12 3 12 6 0 11
5 11 10 0 15 -17 12 -23 -5z"/>
<path d="M740 1775 c0 -5 5 -17 10 -25 5 -8 10 -10 10 -5 0 6 -5 17 -10 25 -5
8 -10 11 -10 5z"/>
<path d="M786 1765 c-9 -9 -14 -21 -11 -26 8 -12 35 -12 35 1 0 5 -8 7 -17 4
-16 -5 -15 -3 1 10 11 9 17 18 14 21 -3 3 -13 -1 -22 -10z"/>
<path d="M8235 1753 c1 -10 -5 -27 -14 -38 -14 -17 -14 -18 0 -7 9 6 18 10 20
8 2 -3 5 9 5 25 1 16 -2 29 -6 29 -5 0 -7 -8 -5 -17z"/>
<path d="M8277 1751 c-10 -12 -9 -13 3 -6 8 5 21 10 28 11 24 4 25 13 3 11
-12 -1 -28 -8 -34 -16z"/>
<path d="M825 1752 c4 -7 1 -20 -7 -29 -7 -9 -8 -14 -2 -10 7 4 14 0 18 -8 3
-8 -3 -19 -12 -24 -9 -6 -12 -11 -5 -11 6 0 15 5 18 10 4 6 11 8 16 5 13 -9
11 -26 -2 -22 -6 1 -14 -5 -16 -13 -4 -13 -3 -13 6 0 6 8 11 11 11 6 0 -6 5
-5 12 2 8 8 8 15 -1 26 -16 19 0 28 17 10 7 -8 10 -14 6 -14 -4 0 2 -10 14
-23 12 -13 19 -26 16 -30 -4 -4 -13 1 -21 11 -12 16 -14 16 -26 0 -8 -10 -18
-14 -22 -10 -5 4 -5 1 0 -7 7 -12 10 -11 22 4 12 18 14 18 26 2 8 -12 16 -14
27 -7 12 7 12 12 2 22 -19 19 -14 30 7 16 11 -7 17 -16 14 -22 -4 -5 -1 -6 7
-1 16 10 -27 45 -47 38 -8 -3 -13 -2 -11 3 1 5 -4 19 -12 31 -13 20 -15 20
-28 5 -12 -16 -13 -16 -9 0 3 9 -1 24 -9 35 -9 10 -13 12 -9 5z"/>
<path d="M610 1739 c0 -5 5 -7 10 -4 6 3 10 8 10 11 0 2 -4 4 -10 4 -5 0 -10
-5 -10 -11z"/>
<path d="M8190 1731 c0 -7 -4 -9 -10 -6 -6 4 -7 -1 -3 -11 6 -15 7 -15 15 1 6
9 7 19 4 22 -3 4 -6 1 -6 -6z"/>
<path d="M767 1719 c7 -7 15 -10 18 -7 3 3 -2 9 -12 12 -14 6 -15 5 -6 -5z"/>
<path d="M705 1700 c-3 -6 1 -7 9 -4 18 7 21 14 7 14 -6 0 -13 -4 -16 -10z"/>
<path d="M748 1703 c6 -2 9 -10 6 -15 -4 -7 -2 -8 5 -4 13 9 5 26 -12 25 -9 0
-8 -2 1 -6z"/>
<path d="M798 1693 c7 -3 16 -2 19 1 4 3 -2 6 -13 5 -11 0 -14 -3 -6 -6z"/>
<path d="M720 1686 c0 -2 8 -10 18 -17 15 -13 16 -12 3 4 -13 16 -21 21 -21
13z"/>
<path d="M8086 1675 c-3 -9 -10 -13 -16 -10 -5 3 -10 1 -10 -4 0 -6 4 -11 9
-11 12 0 35 29 29 36 -3 3 -8 -2 -12 -11z"/>
<path d="M8193 1672 c-8 -14 -8 -19 1 -19 7 0 13 9 13 19 1 10 1 18 0 18 -1 0
-7 -8 -14 -18z"/>
<path d="M775 1670 c-3 -6 1 -7 9 -4 18 7 21 14 7 14 -6 0 -13 -4 -16 -10z"/>
<path d="M8150 1671 c0 -7 -5 -9 -12 -5 -7 5 -8 3 -3 -5 5 -9 10 -10 18 -2 6
6 8 14 4 18 -4 3 -7 1 -7 -6z"/>
<path d="M670 1659 c0 -5 5 -7 10 -4 6 3 10 8 10 11 0 2 -4 4 -10 4 -5 0 -10
-5 -10 -11z"/>
<path d="M760 1640 c-9 -6 -10 -10 -3 -10 6 0 15 5 18 10 8 12 4 12 -15 0z"/>
<path d="M8032 1638 c3 -21 -13 -59 -23 -53 -5 4 -4 15 3 28 10 20 10 21 -5 9
-19 -16 -17 -67 3 -85 10 -10 10 -8 1 10 -14 27 -14 36 -1 28 5 -3 15 5 21 19
8 16 17 23 28 19 14 -4 14 -3 -1 10 -10 8 -15 17 -11 20 3 4 1 7 -6 7 -6 0
-11 -6 -9 -12z"/>
<path d="M8080 1640 c-8 -5 -10 -10 -5 -10 6 0 17 5 25 10 8 5 11 10 5 10 -5
0 -17 -5 -25 -10z"/>
<path d="M8127 1639 c7 -7 15 -10 18 -7 3 3 -2 9 -12 12 -14 6 -15 5 -6 -5z"/>
<path d="M944 1612 c-11 -10 -26 -17 -34 -15 -13 4 -13 3 -1 -5 17 -12 37 -6
45 14 3 9 11 12 17 8 8 -4 9 -3 5 4 -9 15 -9 15 -32 -6z"/>
<path d="M8095 1620 c-3 -6 1 -7 9 -4 18 7 21 14 7 14 -6 0 -13 -4 -16 -10z"/>
<path d="M713 1595 c0 -8 4 -12 9 -9 5 3 6 10 3 15 -9 13 -12 11 -12 -6z"/>
<path d="M830 1601 c0 -6 4 -13 10 -16 6 -3 7 1 4 9 -7 18 -14 21 -14 7z"/>
<path d="M873 1590 c1 -11 5 -20 9 -20 3 0 6 9 5 20 -1 11 -5 20 -9 20 -3 0
-6 -9 -5 -20z"/>
<path d="M8105 1599 c-4 -6 -4 -13 -1 -16 3 -4 6 -1 6 6 0 7 5 9 12 5 7 -4 8
-3 4 4 -9 15 -13 15 -21 1z"/>
<path d="M8195 1599 c-3 -4 2 -6 10 -5 21 3 28 13 10 13 -9 0 -18 -4 -20 -8z"/>
<path d="M8068 1593 c7 -3 16 -2 19 1 4 3 -2 6 -13 5 -11 0 -14 -3 -6 -6z"/>
<path d="M8149 1583 c-13 -16 -12 -17 4 -4 16 13 21 21 13 21 -2 0 -10 -8 -17
-17z"/>
<path d="M8031 1567 c-13 -21 -12 -21 5 -5 10 10 16 20 13 22 -3 3 -11 -5 -18
-17z"/>
<path d="M950 1577 c0 -5 5 -17 11 -28 10 -20 11 -20 30 -3 15 13 17 19 7 26
-7 4 -17 8 -23 8 -5 0 -4 -4 4 -9 8 -5 10 -14 6 -21 -6 -9 -12 -6 -21 11 -7
13 -13 20 -14 16z"/>
<path d="M810 1559 c0 -5 5 -7 10 -4 6 3 10 8 10 11 0 2 -4 4 -10 4 -5 0 -10
-5 -10 -11z"/>
<path d="M915 1560 c-3 -5 -1 -10 4 -10 6 0 11 5 11 10 0 6 -2 10 -4 10 -3 0
-8 -4 -11 -10z"/>
<path d="M8070 1556 c7 -7 14 -6 21 1 9 9 7 12 -9 10 -14 -1 -18 -5 -12 -11z"/>
<path d="M775 1541 c-3 -5 -2 -12 3 -15 5 -3 9 1 9 9 0 17 -3 19 -12 6z"/>
<path d="M8110 1539 c0 -5 5 -7 10 -4 6 3 10 8 10 11 0 2 -4 4 -10 4 -5 0 -10
-5 -10 -11z"/>
<path d="M995 1520 c3 -6 1 -10 -6 -10 -7 0 -10 -3 -6 -6 3 -3 13 -2 22 4 16
8 16 9 1 15 -10 4 -15 3 -11 -3z"/>
<path d="M913 1507 c0 -8 6 -14 14 -14 9 0 10 4 2 14 -6 7 -12 13 -14 13 -1 0
-2 -6 -2 -13z"/>
<path d="M953 1505 c0 -8 4 -12 9 -9 5 3 6 10 3 15 -9 13 -12 11 -12 -6z"/>
<path d="M1074 1509 c-4 -7 -3 -9 4 -5 5 3 13 0 15 -6 4 -9 6 -10 6 -1 1 17
-16 25 -25 12z"/>
<path d="M8095 1511 c-3 -5 -2 -12 3 -15 5 -3 9 1 9 9 0 17 -3 19 -12 6z"/>
<path d="M7845 1501 c-3 -6 -11 -9 -16 -6 -5 4 -22 -4 -37 -16 -18 -14 -20
-20 -8 -15 12 4 26 0 38 -11 18 -16 18 -16 12 0 -3 9 -10 17 -15 17 -5 0 -9 5
-9 11 0 6 6 9 13 6 16 -6 44 9 35 18 -3 4 -9 1 -13 -4z"/>
<path d="M7955 1490 c-3 -6 1 -7 9 -4 18 7 21 14 7 14 -6 0 -13 -4 -16 -10z"/>
<path d="M825 1480 c-3 -6 1 -7 9 -4 18 7 21 14 7 14 -6 0 -13 -4 -16 -10z"/>
<path d="M1068 1483 c6 -2 10 -9 6 -14 -3 -5 -1 -8 5 -7 5 2 17 -6 26 -17 9
-11 13 -13 9 -5 -12 25 -36 50 -48 49 -6 0 -6 -3 2 -6z"/>
<path d="M7900 1480 c-9 -6 -10 -10 -3 -10 6 0 15 5 18 10 8 12 4 12 -15 0z"/>
<path d="M1015 1470 c-3 -6 1 -7 9 -4 18 7 21 14 7 14 -6 0 -13 -4 -16 -10z"/>
<path d="M940 1466 c0 -2 8 -10 18 -17 15 -13 16 -12 3 4 -13 16 -21 21 -21
13z"/>
<path d="M1227 1459 c7 -7 15 -10 18 -7 3 3 -2 9 -12 12 -14 6 -15 5 -6 -5z"/>
<path d="M7904 1443 c-15 -24 -15 -26 -1 -14 13 10 20 11 30 2 10 -8 14 -7 14
4 0 7 -3 14 -6 13 -19 -2 -24 4 -11 12 8 5 10 10 4 10 -7 0 -20 -12 -30 -27z"/>
<path d="M1151 1456 c2 -2 15 -9 29 -15 24 -11 24 -11 6 3 -16 13 -49 24 -35
12z"/>
<path d="M7870 1445 c0 -8 2 -15 4 -15 2 0 6 7 10 15 3 8 1 15 -4 15 -6 0 -10
-7 -10 -15z"/>
<path d="M7976 1447 c3 -10 9 -15 12 -12 3 3 0 11 -7 18 -10 9 -11 8 -5 -6z"/>
<path d="M980 1446 c0 -2 8 -10 18 -17 15 -13 16 -12 3 4 -13 16 -21 21 -21
13z"/>
<path d="M7796 1435 c4 -8 8 -15 10 -15 2 0 4 7 4 15 0 8 -4 15 -10 15 -5 0
-7 -7 -4 -15z"/>
<path d="M936 1418 c3 -5 10 -6 15 -3 13 9 11 12 -6 12 -8 0 -12 -4 -9 -9z"/>
<path d="M1025 1419 c-3 -4 2 -6 10 -5 21 3 28 13 10 13 -9 0 -18 -4 -20 -8z"/>
<path d="M1150 1420 c0 -5 7 -7 15 -4 8 4 15 8 15 10 0 2 -7 4 -15 4 -8 0 -15
-4 -15 -10z"/>
<path d="M1264 1413 c-16 -12 -17 -15 -4 -23 8 -6 21 -8 28 -5 15 5 62 -15 62
-27 0 -4 5 -8 10 -8 6 0 9 5 8 11 -2 6 3 14 10 16 8 3 10 -1 6 -11 -7 -18 20
-23 31 -6 4 6 -1 7 -11 3 -11 -4 -15 -2 -11 4 4 6 1 16 -7 22 -10 9 -15 8 -19
-4 -4 -8 -13 -12 -21 -9 -8 3 -12 12 -10 19 3 8 -5 18 -18 25 -22 11 -22 10
-4 -4 11 -9 16 -19 12 -23 -4 -5 -15 2 -25 13 -15 19 -19 20 -37 7z m26 -13
c0 -5 -4 -10 -10 -10 -5 0 -10 5 -10 10 0 6 5 10 10 10 6 0 10 -4 10 -10z"/>
<path d="M1121 1403 c7 -12 15 -20 18 -17 3 2 -3 12 -13 22 -17 16 -18 16 -5
-5z"/>
<path d="M1190 1409 c0 -5 5 -7 10 -4 6 4 19 1 28 -7 15 -12 16 -11 3 5 -15
19 -41 23 -41 6z"/>
<path d="M7780 1400 c-9 -6 -10 -10 -3 -10 6 0 15 5 18 10 8 12 4 12 -15 0z"/>
<path d="M7840 1395 c-7 -8 -9 -15 -5 -15 5 0 0 -10 -11 -22 -12 -14 -13 -18
-3 -10 9 6 18 9 22 6 3 -3 4 2 3 13 -2 10 1 24 7 31 14 17 2 15 -13 -3z"/>
<path d="M7877 1392 c-15 -16 -15 -19 -2 -19 8 0 13 3 10 5 -3 3 0 11 6 19 17
20 5 16 -14 -5z"/>
<path d="M7700 1385 c-6 -8 -10 -22 -7 -32 4 -14 5 -13 6 5 1 13 5 20 11 17 6
-4 8 -16 5 -28 -5 -20 -5 -20 5 -4 8 13 9 22 1 31 -6 7 -8 16 -4 19 3 4 4 7 1
7 -3 0 -11 -7 -18 -15z"/>
<path d="M1190 1386 c0 -2 9 -6 20 -9 11 -3 18 -1 14 4 -5 9 -34 13 -34 5z"/>
<path d="M1241 1373 c-1 -17 16 -25 25 -12 4 7 3 9 -4 5 -5 -3 -13 0 -15 6 -4
9 -6 10 -6 1z"/>
<path d="M7911 1367 c-8 -10 -7 -14 2 -14 8 0 14 6 14 14 0 7 -1 13 -2 13 -2
0 -8 -6 -14 -13z"/>
<path d="M1070 1360 c0 -5 5 -10 11 -10 5 0 7 5 4 10 -3 6 -8 10 -11 10 -2 0
-4 -4 -4 -10z"/>
<path d="M1135 1360 c-3 -6 1 -7 9 -4 18 7 21 14 7 14 -6 0 -13 -4 -16 -10z"/>
<path d="M1170 1360 c0 -4 7 -7 15 -6 23 3 26 12 5 13 -11 1 -20 -2 -20 -7z"/>
<path d="M1279 1353 c-13 -17 -13 -17 6 -3 11 8 22 16 24 17 2 2 0 3 -6 3 -6
0 -17 -8 -24 -17z"/>
<path d="M1429 1359 c-1 -8 -1 -21 0 -31 1 -9 -3 -19 -9 -23 -13 -8 -13 -35 0
-35 5 0 7 8 3 18 -6 15 -4 15 15 -2 17 -14 25 -16 35 -7 8 6 17 8 20 4 11 -10
8 -23 -4 -20 -6 1 -14 -5 -16 -13 -4 -13 -3 -13 6 0 6 8 11 11 11 6 0 -6 5 -5
12 2 8 8 8 15 -2 27 -7 8 -8 15 -2 15 18 0 31 -25 22 -40 -6 -8 -10 -19 -10
-25 0 -5 9 5 20 23 11 18 24 31 28 28 5 -3 9 1 9 9 0 13 -3 13 -18 -1 -16 -14
-18 -13 -33 7 -8 12 -12 27 -9 33 3 6 2 8 -2 3 -5 -4 -17 0 -27 10 -10 9 -18
13 -18 8 0 -4 -7 -2 -15 5 -12 10 -15 10 -16 -1z m29 -29 c8 -13 8 -20 1 -20
-5 0 -7 -5 -3 -11 4 -8 9 -7 15 2 4 8 4 18 -1 23 -19 19 -10 26 10 9 20 -17
20 -17 0 -37 -24 -24 -43 -11 -45 29 -1 30 6 32 23 5z"/>
<path d="M1033 1345 c0 -8 4 -12 9 -9 5 3 6 10 3 15 -9 13 -12 11 -12 -6z"/>
<path d="M1311 1351 c-8 -5 -16 -20 -17 -33 -2 -13 0 -17 2 -10 3 6 11 9 17 5
7 -4 5 1 -2 11 -13 16 -13 17 5 14 10 -1 24 -12 31 -23 7 -11 12 -15 13 -9 0
23 -34 54 -49 45z"/>
<path d="M7760 1356 c0 -2 7 -7 16 -10 8 -3 12 -2 9 4 -6 10 -25 14 -25 6z"/>
<path d="M7627 1336 c-9 -7 -17 -18 -17 -24 0 -17 18 -24 26 -11 4 8 3 9 -4 5
-7 -4 -12 -3 -12 3 0 5 8 14 17 20 10 5 16 12 13 14 -3 3 -13 0 -23 -7z"/>
<path d="M7746 1336 c5 -12 4 -17 -3 -13 -6 4 -19 -3 -29 -16 l-19 -22 23 19
c12 11 22 15 22 11 0 -5 5 -4 12 3 9 9 9 15 -1 25 -10 10 -11 8 -5 -7z"/>
<path d="M1175 1331 c-3 -5 -2 -12 3 -15 5 -3 9 1 9 9 0 17 -3 19 -12 6z"/>
<path d="M1370 1329 c0 -5 5 -7 10 -4 6 3 10 8 10 11 0 2 -4 4 -10 4 -5 0 -10
-5 -10 -11z"/>
<path d="M1396 1325 c-3 -8 -1 -15 4 -15 6 0 10 7 10 15 0 8 -2 15 -4 15 -2 0
-6 -7 -10 -15z"/>
<path d="M7495 1328 c8 -21 14 -22 35 -7 13 9 13 10 -1 6 -9 -3 -22 0 -28 6
-9 9 -11 8 -6 -5z"/>
<path d="M7465 1320 c-4 -6 -12 -8 -18 -4 -7 3 -2 -3 9 -13 12 -10 24 -25 27
-33 4 -12 6 -12 6 2 1 9 7 19 14 22 6 3 3 4 -7 3 -10 -1 -21 4 -24 12 -3 9 0
11 8 6 9 -5 11 -4 6 3 -9 15 -13 15 -21 2z"/>
<path d="M7675 1320 c3 -5 8 -10 11 -10 2 0 4 5 4 10 0 6 -5 10 -11 10 -5 0
-7 -4 -4 -10z"/>
<path d="M7773 1315 c0 -8 4 -12 9 -9 5 3 6 10 3 15 -9 13 -12 11 -12 -6z"/>
<path d="M7819 1328 c-5 -18 -6 -38 -1 -34 7 8 12 36 6 36 -2 0 -4 -1 -5 -2z"/>
<path d="M7916 1318 c3 -5 10 -6 15 -3 13 9 11 12 -6 12 -8 0 -12 -4 -9 -9z"/>
<path d="M1239 1293 c-13 -16 -12 -17 4 -4 9 7 17 15 17 17 0 8 -8 3 -21 -13z"/>
<path d="M1376 1297 c3 -10 9 -15 12 -12 3 3 0 11 -7 18 -10 9 -11 8 -5 -6z"/>
<path d="M7525 1300 c-3 -5 -2 -10 4 -10 5 0 13 5 16 10 3 6 2 10 -4 10 -5 0
-13 -4 -16 -10z"/>
<path d="M7594 1270 c0 -43 4 -47 11 -10 2 13 1 29 -3 37 -5 8 -8 -3 -8 -27z"/>
<path d="M1293 1273 c0 -9 4 -10 12 -3 7 5 15 7 18 3 4 -3 7 -1 7 5 0 6 -8 10
-18 9 -10 0 -19 -7 -19 -14z"/>
<path d="M7550 1282 c0 -5 7 -9 15 -9 8 0 15 4 15 9 0 4 -7 8 -15 8 -8 0 -15
-4 -15 -8z"/>
<path d="M7631 1267 c-13 -21 -12 -21 5 -5 10 10 16 20 13 22 -3 3 -11 -5 -18
-17z"/>
<path d="M7510 1270 c0 -6 7 -10 15 -10 8 0 15 2 15 4 0 2 -7 6 -15 10 -8 3
-15 1 -15 -4z"/>
<path d="M1215 1260 c-3 -5 -1 -10 4 -10 6 0 11 5 11 10 0 6 -2 10 -4 10 -3 0
-8 -4 -11 -10z"/>
<path d="M7730 1259 c0 -5 5 -7 10 -4 6 3 10 8 10 11 0 2 -4 4 -10 4 -5 0 -10
-5 -10 -11z"/>
<path d="M7776 1258 c3 -4 11 -5 19 -1 21 7 19 12 -4 10 -11 0 -18 -5 -15 -9z"/>
<path d="M1395 1249 c-4 -6 -5 -12 -2 -15 2 -3 7 2 10 11 7 17 1 20 -8 4z"/>
<path d="M1428 1253 c7 -3 16 -2 19 1 4 3 -2 6 -13 5 -11 0 -14 -3 -6 -6z"/>
<path d="M1360 1240 c-9 -6 -10 -10 -3 -10 6 0 15 5 18 10 8 12 4 12 -15 0z"/>
<path d="M1552 1230 c7 -10 14 -18 15 -16 6 6 -9 36 -18 36 -5 0 -4 -9 3 -20z"/>
<path d="M7460 1240 c-9 -6 -10 -10 -3 -10 6 0 15 5 18 10 8 12 4 12 -15 0z"/>
<path d="M1430 1236 c0 -2 9 -6 20 -9 11 -3 18 -1 14 4 -5 9 -34 13 -34 5z"/>
<path d="M7430 1231 c0 -6 4 -13 10 -16 6 -3 7 1 4 9 -7 18 -14 21 -14 7z"/>
<path d="M7559 1238 c-5 -18 -6 -38 -1 -34 7 8 12 36 6 36 -2 0 -4 -1 -5 -2z"/>
<path d="M1235 1219 c-3 -4 2 -6 10 -5 21 3 28 13 10 13 -9 0 -18 -4 -20 -8z"/>
<path d="M1520 1218 c-12 -8 -11 -9 4 -4 15 5 17 2 13 -14 -3 -11 -1 -18 4
-14 11 6 12 31 1 38 -4 2 -14 0 -22 -6z"/>
<path d="M1614 1219 c-5 -9 -2 -10 9 -6 9 3 18 2 21 -4 2 -5 3 -4 2 3 -3 17
-23 21 -32 7z"/>
<path d="M7205 1222 c-15 -11 -18 -42 -4 -42 7 0 9 3 6 6 -3 4 -2 15 4 25 11
21 9 23 -6 11z"/>
<path d="M7475 1221 c-3 -5 0 -13 6 -17 7 -4 9 -3 5 4 -3 5 0 13 6 15 9 4 10
6 1 6 -6 1 -14 -3 -18 -8z"/>
<path d="M7515 1222 c3 -3 -3 -15 -12 -26 -13 -15 -10 -14 10 3 32 29 31 28
12 28 -8 0 -13 -3 -10 -5z"/>
<path d="M7655 1220 c3 -5 8 -10 11 -10 2 0 4 5 4 10 0 6 -5 10 -11 10 -5 0
-7 -4 -4 -10z"/>
<path d="M1415 1200 c2 -27 10 -33 12 -10 1 11 -2 22 -6 24 -4 3 -7 -4 -6 -14z"/>
<path d="M7224 1205 c-4 -8 -1 -21 5 -29 6 -7 8 -16 4 -19 -3 -4 -1 -7 5 -7
15 0 16 17 2 25 -5 3 -10 13 -10 22 0 11 5 9 20 -8 10 -13 19 -18 20 -11 0 6
-4 12 -10 12 -5 0 -10 7 -10 15 0 20 -19 19 -26 0z"/>
<path d="M1350 1199 c0 -5 5 -7 10 -4 6 3 10 8 10 11 0 2 -4 4 -10 4 -5 0 -10
-5 -10 -11z"/>
<path d="M1490 1201 c0 -6 4 -13 10 -16 6 -3 7 1 4 9 -7 18 -14 21 -14 7z"/>
<path d="M7785 1200 c-3 -6 1 -7 9 -4 18 7 21 14 7 14 -6 0 -13 -4 -16 -10z"/>
<path d="M1590 1190 c0 -5 7 -7 15 -4 8 4 15 8 15 10 0 2 -7 4 -15 4 -8 0 -15
-4 -15 -10z"/>
<path d="M7615 1191 c-3 -5 -2 -12 3 -15 5 -3 9 1 9 9 0 17 -3 19 -12 6z"/>
<path d="M1630 1180 c0 -5 5 -10 10 -10 6 0 10 5 10 10 0 6 -4 10 -10 10 -5 0
-10 -4 -10 -10z"/>
<path d="M7080 1180 c-13 -8 -12 -10 3 -10 10 0 16 -4 13 -9 -6 -9 44 -35 52
-26 4 3 -3 8 -15 11 -11 3 -25 14 -29 25 -7 13 -13 16 -24 9z"/>
<path d="M7379 1188 c-5 -16 -4 -46 2 -42 4 2 7 13 6 24 -1 17 -5 26 -8 18z"/>
<path d="M7570 1179 c0 -5 5 -7 10 -4 6 3 10 8 10 11 0 2 -4 4 -10 4 -5 0 -10
-5 -10 -11z"/>
<path d="M1681 1173 c-1 -17 16 -25 25 -12 4 7 3 9 -4 5 -5 -3 -13 0 -15 6 -4
9 -6 10 -6 1z"/>
<path d="M1736 1165 c-3 -8 -1 -15 4 -15 6 0 10 7 10 15 0 8 -2 15 -4 15 -2 0
-6 -7 -10 -15z"/>
<path d="M7313 1165 c0 -7 6 -11 14 -8 7 3 13 6 13 8 0 2 -6 5 -13 8 -8 3 -14
-1 -14 -8z"/>
<path d="M7455 1169 c-4 -6 -5 -12 -2 -15 2 -3 7 2 10 11 7 17 1 20 -8 4z"/>
<path d="M1475 1160 c-3 -5 -1 -10 4 -10 6 0 11 5 11 10 0 6 -2 10 -4 10 -3 0
-8 -4 -11 -10z"/>
<path d="M1555 1160 c3 -5 8 -10 11 -10 2 0 4 5 4 10 0 6 -5 10 -11 10 -5 0
-7 -4 -4 -10z"/>
<path d="M7180 1160 c-18 -12 -2 -12 25 0 13 6 15 9 5 9 -8 0 -22 -4 -30 -9z"/>
<path d="M1711 1143 c3 -20 -2 -27 -11 -13 -7 12 -9 10 -7 -7 1 -21 3 -21 19
-6 10 8 15 20 12 24 -6 11 -14 12 -13 2z"/>
<path d="M1830 1140 c0 -6 4 -9 9 -5 5 3 12 -5 14 -17 5 -22 5 -21 4 1 -2 24
-27 44 -27 21z"/>
<path d="M6950 1135 c-7 -8 -20 -15 -29 -15 -14 0 -14 2 -1 11 13 9 13 10 0 6
-8 -2 -16 -16 -16 -33 -3 -44 -3 -44 -21 -38 -15 5 -16 4 -3 -5 11 -8 18 -7
26 4 6 8 15 11 20 7 4 -4 2 1 -5 11 -17 21 -10 30 23 30 26 0 54 22 42 34 -3
3 -6 0 -6 -8 0 -11 -2 -11 -9 -1 -6 10 -10 10 -21 -3z"/>
<path d="M7215 1140 c6 -10 4 -12 -8 -7 -10 3 -17 2 -17 -3 0 -13 27 -13 35
-1 3 5 0 13 -6 17 -8 5 -9 3 -4 -6z"/>
<path d="M7320 1140 c-9 -6 -10 -10 -3 -10 6 0 15 5 18 10 8 12 4 12 -15 0z"/>
<path d="M7536 1142 c-2 -4 -1 -14 4 -22 7 -11 9 -9 7 8 -1 24 -3 26 -11 14z"/>
<path d="M7161 1124 c0 -11 3 -14 6 -6 3 7 2 16 -1 19 -3 4 -6 -2 -5 -13z"/>
<path d="M1646 1118 c3 -5 10 -6 15 -3 13 9 11 12 -6 12 -8 0 -12 -4 -9 -9z"/>
<path d="M7022 1122 c-9 -6 -6 -12 12 -20 13 -6 27 -8 30 -5 10 10 7 33 -4 33
-5 0 -7 -7 -4 -15 5 -11 2 -13 -10 -9 -9 3 -13 10 -10 15 6 11 3 11 -14 1z"/>
<path d="M7267 1119 c7 -7 15 -10 18 -7 3 3 -2 9 -12 12 -14 6 -15 5 -6 -5z"/>
<path d="M7356 1118 c3 -5 10 -6 15 -3 13 9 11 12 -6 12 -8 0 -12 -4 -9 -9z"/>
<path d="M7395 1120 c-3 -5 -1 -10 4 -10 6 0 11 5 11 10 0 6 -2 10 -4 10 -3 0
-8 -4 -11 -10z"/>
<path d="M7430 1121 c0 -6 4 -13 10 -16 6 -3 7 1 4 9 -7 18 -14 21 -14 7z"/>
<path d="M7486 1122 c-3 -5 1 -9 9 -9 8 0 12 4 9 9 -3 4 -7 8 -9 8 -2 0 -6 -4
-9 -8z"/>
<path d="M6854 1105 c-4 -8 -10 -13 -14 -10 -5 3 -7 -3 -5 -12 2 -10 4 -22 4
-28 1 -5 8 1 17 13 8 12 20 20 25 17 5 -4 9 -1 9 5 0 7 -7 9 -16 6 -12 -4 -15
-2 -10 9 3 8 3 15 0 15 -2 0 -7 -7 -10 -15z"/>
<path d="M6980 1105 c-8 -10 -21 -13 -34 -9 -21 6 -21 6 -1 -10 23 -17 39 -21
30 -6 -3 6 -2 10 3 10 6 0 12 7 16 15 7 19 2 19 -14 0z"/>
<path d="M7233 1107 c0 -8 6 -14 14 -14 9 0 10 4 2 14 -6 7 -12 13 -14 13 -1
0 -2 -6 -2 -13z"/>
<path d="M1530 1099 c0 -5 5 -7 10 -4 6 3 10 8 10 11 0 2 -4 4 -10 4 -5 0 -10
-5 -10 -11z"/>
<path d="M1575 1100 c3 -5 8 -10 11 -10 2 0 4 5 4 10 0 6 -5 10 -11 10 -5 0
-7 -4 -4 -10z"/>
<path d="M1748 1103 c7 -3 16 -2 19 1 4 3 -2 6 -13 5 -11 0 -14 -3 -6 -6z"/>
<path d="M1870 1100 c0 -5 6 -7 14 -4 11 4 13 -1 10 -18 -4 -21 -3 -21 5 -3 4
11 7 23 4 28 -6 10 -33 9 -33 -3z"/>
<path d="M1836 1087 c3 -10 9 -15 12 -12 3 3 0 11 -7 18 -10 9 -11 8 -5 -6z"/>
<path d="M1970 1095 c0 -5 5 -17 10 -25 5 -8 10 -10 10 -5 0 6 -5 17 -10 25
-5 8 -10 11 -10 5z"/>
<path d="M7001 1093 c-1 -6 -4 -20 -7 -30 -5 -17 -5 -17 6 0 6 10 9 23 6 30
-3 9 -5 9 -5 0z"/>
<path d="M1693 1071 c0 -11 5 -18 9 -15 4 3 5 11 1 19 -7 21 -12 19 -10 -4z"/>
<path d="M1770 1081 c0 -6 4 -13 10 -16 6 -3 7 1 4 9 -7 18 -14 21 -14 7z"/>
<path d="M7070 1079 c0 -5 5 -7 10 -4 6 3 10 8 10 11 0 2 -4 4 -10 4 -5 0 -10
-5 -10 -11z"/>
<path d="M7355 1081 c-3 -5 -2 -12 3 -15 5 -3 9 1 9 9 0 17 -3 19 -12 6z"/>
<path d="M1910 1076 c0 -2 7 -9 15 -16 13 -11 14 -10 9 4 -5 14 -24 23 -24 12z"/>
<path d="M7036 1071 c-3 -5 1 -11 9 -14 9 -4 12 -1 8 9 -6 16 -10 17 -17 5z"/>
<path d="M1655 1060 c3 -5 8 -10 11 -10 2 0 4 5 4 10 0 6 -5 10 -11 10 -5 0
-7 -4 -4 -10z"/>
<path d="M1955 1060 c-3 -5 -1 -10 4 -10 6 0 11 5 11 10 0 6 -2 10 -4 10 -3 0
-8 -4 -11 -10z"/>
<path d="M2013 1054 c-3 -8 -12 -13 -20 -10 -8 3 -11 1 -8 -4 10 -16 23 -12
35 10 6 11 8 20 5 20 -3 0 -8 -7 -12 -16z"/>
<path d="M6935 1059 c-4 -6 -5 -12 -2 -15 2 -3 7 2 10 11 7 17 1 20 -8 4z"/>
<path d="M7080 1060 c-9 -6 -10 -10 -3 -10 6 0 15 5 18 10 8 12 4 12 -15 0z"/>
<path d="M1855 1050 c-4 -6 -10 -8 -14 -6 -4 3 -8 -1 -8 -9 0 -10 4 -12 12 -5
7 5 14 8 17 5 2 -3 5 2 5 10 0 18 -3 19 -12 5z"/>
<path d="M6815 1050 c3 -5 8 -10 11 -10 2 0 4 5 4 10 0 6 -5 10 -11 10 -5 0
-7 -4 -4 -10z"/>
<path d="M1555 1040 c-3 -5 -1 -10 4 -10 6 0 11 5 11 10 0 6 -2 10 -4 10 -3 0
-8 -4 -11 -10z"/>
<path d="M1913 1043 c4 -3 1 -13 -6 -22 -11 -14 -10 -14 5 -2 16 12 16 31 1
31 -4 0 -3 -3 0 -7z"/>
<path d="M2036 1038 c3 -4 11 -5 19 -1 21 7 19 12 -4 10 -11 0 -18 -5 -15 -9z"/>
<path d="M2130 1035 c0 -8 2 -15 4 -15 2 0 6 7 10 15 3 8 1 15 -4 15 -6 0 -10
-7 -10 -15z"/>
<path d="M6860 1046 c0 -2 7 -7 16 -10 8 -3 12 -2 9 4 -6 10 -25 14 -25 6z"/>
<path d="M6710 1030 c-8 -5 -12 -11 -9 -14 2 -3 11 -1 19 4 8 5 12 11 9 14 -2
3 -11 1 -19 -4z"/>
<path d="M6841 1033 c-1 -17 16 -25 25 -12 4 7 3 9 -4 5 -5 -3 -13 0 -15 6 -4
9 -6 10 -6 1z"/>
<path d="M6987 1026 c-4 -10 -1 -13 8 -9 8 3 12 9 9 14 -7 12 -11 11 -17 -5z"/>
<path d="M7135 1031 c-3 -5 -2 -12 3 -15 5 -3 9 1 9 9 0 17 -3 19 -12 6z"/>
<path d="M2110 1023 c0 -5 10 -18 23 -29 l22 -19 -20 25 c-11 14 -21 27 -22
29 -2 2 -3 0 -3 -6z"/>
<path d="M2150 1021 c0 -6 8 -7 18 -4 15 6 16 5 2 -12 -8 -10 -10 -16 -3 -12
6 4 14 1 17 -5 2 -7 3 -2 2 12 -3 24 -36 43 -36 21z"/>
<path d="M7170 1020 c0 -5 5 -10 11 -10 5 0 7 5 4 10 -3 6 -8 10 -11 10 -2 0
-4 -4 -4 -10z"/>
<path d="M1935 1009 c-4 -6 -5 -12 -2 -15 2 -3 7 2 10 11 7 17 1 20 -8 4z"/>
<path d="M2339 1012 c11 -8 11 -10 0 -15 -8 -3 1 -4 19 -3 35 4 57 15 26 14
-11 0 -28 3 -39 7 -14 5 -16 4 -6 -3z"/>
<path d="M6680 1011 c0 -6 4 -13 10 -16 6 -3 7 1 4 9 -7 18 -14 21 -14 7z"/>
<path d="M6871 1007 c-8 -10 -7 -14 4 -14 8 0 12 4 9 8 -2 4 2 10 8 12 8 4 9
6 2 6 -6 1 -17 -5 -23 -12z"/>
<path d="M1866 1002 c-3 -5 1 -9 9 -9 8 0 12 4 9 9 -3 4 -7 8 -9 8 -2 0 -6 -4
-9 -8z"/>
<path d="M2050 1001 c0 -6 4 -13 10 -16 6 -3 7 1 4 9 -7 18 -14 21 -14 7z"/>
<path d="M2208 1003 c6 -2 10 -9 7 -14 -4 -5 1 -6 10 -2 13 5 14 7 3 14 -7 5
-17 8 -23 8 -5 0 -4 -3 3 -6z"/>
<path d="M2265 1000 c3 -5 8 -10 11 -10 2 0 4 5 4 10 0 6 -5 10 -11 10 -5 0
-7 -4 -4 -10z"/>
<path d="M6730 1000 c0 -5 5 -10 10 -10 6 0 10 5 10 10 0 6 -4 10 -10 10 -5 0
-10 -4 -10 -10z"/>
<path d="M6830 1000 c0 -5 5 -10 11 -10 5 0 7 5 4 10 -3 6 -8 10 -11 10 -2 0
-4 -4 -4 -10z"/>
<path d="M6930 1002 c0 -5 7 -9 15 -9 8 0 12 4 9 9 -3 4 -9 8 -15 8 -5 0 -9
-4 -9 -8z"/>
<path d="M7050 999 c0 -5 5 -7 10 -4 6 3 10 8 10 11 0 2 -4 4 -10 4 -5 0 -10
-5 -10 -11z"/>
<path d="M2290 991 c0 -6 4 -13 10 -16 6 -3 7 1 4 9 -7 18 -14 21 -14 7z"/>
<path d="M6707 987 c-3 -8 1 -14 8 -14 7 0 11 6 8 14 -3 7 -6 13 -8 13 -2 0
-5 -6 -8 -13z"/>
<path d="M2114 973 c16 -20 36 -23 36 -6 0 4 -3 3 -7 0 -3 -4 -16 1 -27 10
-21 18 -21 18 -2 -4z"/>
<path d="M2255 980 c6 -10 4 -12 -11 -6 -15 6 -17 5 -6 -5 9 -9 15 -10 23 -2
8 8 7 13 -2 18 -8 6 -10 4 -4 -5z"/>
<path d="M2390 980 c0 -6 4 -9 9 -5 5 3 12 -2 14 -10 4 -12 5 -12 3 1 -1 19
-26 32 -26 14z"/>
<path d="M6430 970 c-21 -16 -23 -21 -11 -32 12 -11 13 -10 8 4 -4 11 0 19 14
23 10 4 19 11 19 16 0 12 -1 12 -30 -11z"/>
<path d="M2356 966 c10 -8 21 -12 24 -10 5 6 -21 24 -34 24 -6 0 -1 -6 10 -14z"/>
<path d="M2438 973 c7 -3 16 -2 19 1 4 3 -2 6 -13 5 -11 0 -14 -3 -6 -6z"/>
<path d="M1975 960 c-3 -5 -1 -10 4 -10 6 0 11 5 11 10 0 6 -2 10 -4 10 -3 0
-8 -4 -11 -10z"/>
<path d="M2200 966 c0 -2 8 -10 18 -17 15 -13 16 -12 3 4 -13 16 -21 21 -21
13z"/>
<path d="M2271 952 c-7 -14 -6 -18 9 -18 13 0 16 4 10 12 -6 6 -7 14 -3 17 3
4 3 7 0 7 -3 0 -11 -8 -16 -18z"/>
<path d="M6454 954 c-19 -15 -19 -15 1 -6 11 5 27 12 35 15 13 5 13 6 -1 6 -8
1 -24 -6 -35 -15z"/>
<path d="M6646 957 c3 -10 9 -15 12 -12 3 3 0 11 -7 18 -10 9 -11 8 -5 -6z"/>
<path d="M6779 953 c-13 -16 -12 -17 4 -4 9 7 17 15 17 17 0 8 -8 3 -21 -13z"/>
<path d="M6930 959 c0 -5 5 -7 10 -4 6 3 10 8 10 11 0 2 -4 4 -10 4 -5 0 -10
-5 -10 -11z"/>
<path d="M6974 962 c4 -3 14 -7 22 -8 9 -1 13 0 10 4 -4 3 -14 7 -22 8 -9 1
-13 0 -10 -4z"/>
<path d="M2314 935 c0 -13 4 -21 8 -19 5 3 6 9 3 14 -3 4 0 10 7 12 8 3 7 6
-3 10 -11 4 -15 -1 -15 -17z"/>
<path d="M2874 944 c15 -11 15 -13 1 -27 -8 -9 -15 -19 -15 -24 1 -4 9 2 20
15 21 25 18 49 -7 49 -14 0 -14 -2 1 -13z"/>
<path d="M6593 935 c-3 -9 -3 -18 -1 -21 3 -3 8 4 11 16 6 23 -1 27 -10 5z"/>
<path d="M6680 935 c-7 -8 -16 -13 -20 -10 -5 3 -11 2 -14 -3 -10 -17 24 -8
41 10 9 10 14 18 11 18 -3 0 -11 -7 -18 -15z"/>
<path d="M2963 933 c-7 -3 -13 -10 -13 -15 0 -6 3 -9 6 -5 4 3 20 -1 36 -9 17
-9 27 -18 24 -21 -3 -4 -17 0 -31 7 -28 15 -46 6 -25 -13 10 -9 11 -9 6 1 -4
6 -3 12 2 12 16 0 22 -13 11 -27 -9 -9 -8 -13 0 -13 6 0 11 4 11 9 0 16 38 19
59 4 12 -8 21 -10 21 -4 0 6 -4 11 -10 11 -5 0 -10 5 -10 11 0 6 7 8 16 5 8
-3 13 -2 10 3 -3 5 1 12 10 15 11 4 14 1 10 -12 -4 -11 2 -22 17 -31 12 -7 19
-10 15 -6 -9 10 14 34 26 27 5 -3 6 1 1 8 -6 10 -4 11 11 5 10 -4 27 -7 37 -7
20 1 23 -14 5 -21 -10 -4 -10 -6 -1 -6 16 -1 24 14 17 32 -3 9 -14 14 -25 12
-11 -2 -32 1 -47 7 -34 14 -73 18 -66 6 3 -4 1 -8 -5 -8 -5 0 -13 5 -16 10 -4
6 -11 7 -17 4 -6 -4 -14 -1 -18 6 -4 7 -13 9 -19 6 -6 -4 -9 -12 -6 -17 9 -14
-7 -11 -19 5 -6 7 -17 12 -23 9z m86 -19 c5 4 12 3 15 -2 2 -4 -3 -13 -12 -19
-18 -11 -34 -1 -40 27 -3 11 0 11 12 1 8 -7 20 -10 25 -7z m87 -7 c10 -9 -16
-38 -28 -31 -5 3 -1 13 9 21 10 8 13 12 6 9 -6 -4 -14 -2 -17 3 -7 10 20 9 30
-2z"/>
<path d="M6230 931 c0 -6 5 -13 12 -17 7 -5 8 -3 3 6 -6 10 -4 12 9 7 10 -4
15 -3 11 3 -8 13 -35 13 -35 1z"/>
<path d="M6476 932 c2 -2 -2 -14 -8 -26 -10 -20 -10 -20 8 -4 12 12 15 21 8
27 -6 5 -9 6 -8 3z"/>
<path d="M6615 929 c-4 -6 -5 -12 -2 -15 2 -3 7 2 10 11 7 17 1 20 -8 4z"/>
<path d="M6735 929 c-4 -6 -5 -12 -2 -15 2 -3 7 2 10 11 7 17 1 20 -8 4z"/>
<path d="M1790 926 c0 -2 7 -7 16 -10 8 -3 12 -2 9 4 -6 10 -25 14 -25 6z"/>
<path d="M2480 920 c8 -5 20 -10 25 -10 6 0 3 5 -5 10 -8 5 -19 10 -25 10 -5
0 -3 -5 5 -10z"/>
<path d="M2550 926 c0 -2 7 -7 16 -10 8 -3 12 -2 9 4 -6 10 -25 14 -25 6z"/>
<path d="M2626 916 c10 -8 21 -12 24 -10 5 6 -21 24 -34 24 -6 0 -1 -6 10 -14z"/>
<path d="M2713 908 c-2 -18 0 -20 7 -8 12 18 13 30 2 30 -4 0 -9 -10 -9 -22z"/>
<path d="M5869 925 c-1 -6 -1 -13 0 -17 2 -12 -17 -10 -24 2 -4 7 -12 7 -24 0
-10 -5 -21 -7 -25 -5 -3 3 -2 -1 4 -7 13 -15 13 -28 1 -28 -5 0 -12 9 -16 19
-6 19 -30 24 -30 6 0 -6 6 -8 15 -7 8 2 12 1 8 -4 -5 -4 1 -14 12 -21 11 -8
17 -19 14 -25 -4 -6 -3 -8 3 -5 5 3 9 20 8 37 -1 18 3 29 9 27 6 -2 11 -15 11
-30 1 -14 5 -30 9 -34 5 -4 5 3 1 17 -7 22 -6 23 9 11 9 -8 16 -9 16 -3 0 6
-6 12 -12 15 -7 2 -10 8 -6 12 4 4 19 0 32 -9 14 -9 33 -16 43 -15 14 0 14 2
3 6 -41 13 -60 27 -48 34 10 7 10 11 0 21 -6 6 -13 8 -13 3z"/>
<path d="M5904 909 c0 -10 4 -19 9 -19 4 0 12 0 17 0 17 0 11 19 -9 29 -15 8
-18 7 -17 -10z m26 -3 c0 -3 -4 -8 -10 -11 -5 -3 -10 -1 -10 4 0 6 5 11 10 11
6 0 10 -2 10 -4z"/>
<path d="M6526 922 c-3 -5 1 -9 9 -9 8 0 15 4 15 9 0 4 -4 8 -9 8 -6 0 -12 -4
-15 -8z"/>
<path d="M2394 906 c1 -8 5 -18 8 -22 4 -3 5 1 4 10 -1 8 -5 18 -8 22 -4 3 -5
-1 -4 -10z"/>
<path d="M2597 909 c7 -7 15 -10 18 -7 3 3 -2 9 -12 12 -14 6 -15 5 -6 -5z"/>
<path d="M2110 899 c0 -5 5 -7 10 -4 6 3 10 8 10 11 0 2 -4 4 -10 4 -5 0 -10
-5 -10 -11z"/>
<path d="M2420 906 c0 -2 8 -10 18 -17 15 -13 16 -12 3 4 -13 16 -21 21 -21
13z"/>
<path d="M2550 901 c13 -9 8 -15 -11 -13 -3 1 -6 -6 -6 -13 0 -10 4 -12 12 -5
7 5 14 7 18 4 3 -3 4 2 3 12 -2 10 -9 20 -17 22 -11 3 -11 1 1 -7z"/>
<path d="M2726 883 l-17 -28 19 22 c11 12 23 19 27 15 5 -4 5 -1 1 6 -10 17
-11 16 -30 -15z"/>
<path d="M6256 902 c-2 -4 0 -14 6 -22 8 -12 9 -12 4 3 -4 12 0 17 16 17 18 0
19 -2 7 -17 -13 -16 -12 -17 3 -4 10 7 15 17 12 22 -7 11 -41 12 -48 1z"/>
<path d="M6356 893 c-6 -14 -5 -15 5 -6 7 7 10 15 7 18 -3 3 -9 -2 -12 -12z"/>
<path d="M6419 908 c-7 -23 -4 -35 7 -35 9 0 11 4 4 12 -5 7 -7 15 -3 18 3 4
3 7 0 7 -4 0 -7 -1 -8 -2z"/>
<path d="M6555 900 c-3 -5 -1 -10 4 -10 6 0 11 5 11 10 0 6 -2 10 -4 10 -3 0
-8 -4 -11 -10z"/>
<path d="M5669 898 c-7 -23 -6 -45 2 -57 8 -12 9 -11 4 7 -4 14 -2 22 7 23 7
0 21 2 31 4 11 2 16 -1 14 -8 -2 -7 -13 -11 -23 -9 -15 2 -16 1 -5 -7 9 -6 20
-5 32 2 14 8 15 14 6 29 -7 10 -18 16 -24 13 -44 -18 -46 -18 -39 -7 4 7 5 12
2 12 -3 0 -6 -1 -7 -2z"/>
<path d="M6616 887 c3 -10 9 -15 12 -12 3 3 0 11 -7 18 -10 9 -11 8 -5 -6z"/>
<path d="M2605 880 c-3 -6 1 -7 9 -4 18 7 21 14 7 14 -6 0 -13 -4 -16 -10z"/>
<path d="M2632 865 c-17 -19 -16 -20 3 -4 11 9 30 15 43 14 12 -1 22 2 22 7 0
16 -51 3 -68 -17z"/>
<path d="M2780 880 c8 -5 20 -10 25 -10 6 0 3 5 -5 10 -8 5 -19 10 -25 10 -5
0 -3 -5 5 -10z"/>
<path d="M6155 879 c-11 -16 -1 -19 13 -3 7 8 8 14 3 14 -5 0 -13 -5 -16 -11z"/>
<path d="M6519 873 c-13 -16 -12 -17 4 -4 9 7 17 15 17 17 0 8 -8 3 -21 -13z"/>
<path d="M2868 873 c6 -2 18 -2 25 0 6 3 1 5 -13 5 -14 0 -19 -2 -12 -5z"/>
<path d="M3170 871 c0 -5 7 -15 17 -22 15 -13 15 -12 4 9 -12 23 -21 28 -21
13z"/>
<path d="M3556 872 c-3 -6 0 -13 6 -15 10 -4 10 -6 0 -6 -7 -1 -10 -5 -7 -11
3 -5 1 -10 -4 -10 -6 0 -11 -5 -11 -11 0 -5 5 -7 12 -3 7 5 9 2 6 -8 -4 -8 -2
-21 3 -29 5 -9 7 -4 5 16 -1 17 1 37 5 46 9 18 -5 47 -15 31z"/>
<path d="M2415 860 c3 -5 8 -10 11 -10 2 0 4 5 4 10 0 6 -5 10 -11 10 -5 0 -7
-4 -4 -10z"/>
<path d="M2757 854 c3 -8 -1 -22 -8 -32 -13 -15 -12 -16 4 -3 9 7 17 20 17 28
0 8 5 11 13 7 6 -4 8 -3 4 1 -13 15 -36 14 -30 -1z"/>
<path d="M2933 855 c-3 -9 -3 -19 1 -22 3 -4 6 1 6 11 0 10 5 14 12 10 7 -4 8
-3 4 4 -10 16 -15 15 -23 -3z"/>
<path d="M3145 859 c-4 -6 -5 -12 -2 -15 2 -3 7 2 10 11 7 17 1 20 -8 4z"/>
<path d="M3229 857 c-9 -7 -14 -18 -11 -26 3 -9 0 -11 -8 -6 -9 5 -11 4 -6 -4
9 -14 26 -5 26 14 0 7 6 15 13 18 6 2 10 7 7 10 -3 3 -12 0 -21 -6z"/>
<path d="M3313 844 c0 -23 1 -24 9 -10 7 12 7 21 0 28 -6 6 -9 0 -9 -18z"/>
<path d="M3593 857 c0 -6 -4 -21 -8 -32 -6 -16 -5 -17 4 -5 10 13 12 13 21 0
9 -13 10 -13 8 2 -2 9 5 23 16 31 16 12 16 14 2 14 -9 0 -16 -5 -16 -10 0 -5
-6 -5 -13 2 -10 8 -14 7 -14 -2z"/>
<path d="M3661 857 c-6 -8 -7 -18 -3 -22 4 -5 0 -6 -8 -3 -11 4 -16 -1 -18
-15 -1 -17 1 -19 8 -7 5 8 10 11 11 5 1 -5 2 -14 3 -20 2 -18 36 -22 36 -4 0
8 -5 8 -15 -1 -18 -15 -20 1 -2 19 10 11 9 12 -2 6 -9 -5 -12 -3 -9 6 3 8 12
13 22 11 20 -4 21 11 2 27 -10 8 -16 8 -25 -2z m23 -5 c3 -5 -1 -9 -9 -9 -8 0
-12 4 -9 9 3 4 7 8 9 8 2 0 6 -4 9 -8z"/>
<path d="M5990 861 c0 -6 4 -13 10 -16 6 -3 7 1 4 9 -7 18 -14 21 -14 7z"/>
<path d="M6340 866 c0 -2 8 -10 18 -17 15 -13 16 -12 3 4 -13 16 -21 21 -21
13z"/>
<path d="M2575 849 c-4 -6 -5 -12 -2 -15 2 -3 7 2 10 11 7 17 1 20 -8 4z"/>
<path d="M3021 844 c0 -11 3 -14 6 -6 3 7 2 16 -1 19 -3 4 -6 -2 -5 -13z"/>
<path d="M3071 833 c-10 -26 -10 -27 4 -9 8 11 15 23 15 28 0 15 -7 8 -19 -19z"/>
<path d="M3713 844 c0 -7 5 -10 10 -7 5 3 7 0 5 -8 -3 -8 -14 -13 -24 -12 -10
1 -13 0 -6 -3 6 -3 12 -13 13 -22 0 -12 3 -10 9 6 5 12 15 22 21 22 8 0 8 4
-1 15 -7 8 -8 15 -2 15 5 0 14 -6 20 -13 9 -10 6 -18 -9 -30 -20 -18 -18 -37
4 -37 7 0 6 4 -3 10 -14 9 -7 14 13 11 5 -1 6 3 2 9 -3 5 -1 10 5 10 7 0 10 7
6 15 -8 21 1 19 27 -6 14 -14 16 -20 6 -16 -9 3 -20 -3 -27 -14 -8 -12 -8 -19
-2 -19 5 0 10 5 10 10 0 6 7 10 15 10 9 0 18 6 21 13 2 7 15 13 27 14 l22 2
-24 -20 c-13 -11 -21 -22 -18 -26 4 -3 15 5 25 17 13 16 25 21 37 17 14 -6 15
-10 5 -22 -7 -8 -9 -15 -6 -15 4 0 19 14 33 30 13 17 30 30 36 30 8 0 8 -3 0
-11 -6 -6 -9 -18 -6 -25 4 -10 0 -12 -13 -8 -15 6 -16 4 -7 -6 14 -15 35 -4
31 17 -2 9 3 18 10 20 6 3 10 -1 9 -9 -2 -7 -2 -10 0 -5 3 4 9 5 14 1 5 -3 9
0 9 5 0 6 -5 11 -12 11 -6 0 -3 7 8 16 18 14 18 15 -5 4 -13 -7 -26 -8 -30 -4
-8 12 -51 14 -51 2 0 -5 -4 -7 -9 -3 -5 3 -12 1 -16 -5 -10 -17 -25 -11 -19 8
5 13 4 14 -4 3 -8 -11 -10 -11 -15 0 -4 11 -6 10 -6 -1 -1 -9 -10 -16 -20 -17
-13 -1 -18 3 -14 13 3 7 10 11 17 7 6 -3 8 -2 3 2 -13 15 -124 13 -124 -1z
m222 -24 c-17 -19 -35 -19 -35 1 0 6 4 8 8 5 4 -2 14 -1 22 5 23 14 25 11 5
-11z"/>
<path d="M5743 845 c-10 -8 -13 -15 -6 -15 6 0 15 5 19 12 5 7 11 5 21 -7 11
-16 13 -16 13 -3 0 22 -25 29 -47 13z"/>
<path d="M6251 847 c-8 -10 -7 -14 2 -14 8 0 14 6 14 14 0 7 -1 13 -2 13 -2 0
-8 -6 -14 -13z"/>
<path d="M2710 841 c0 -6 4 -13 10 -16 6 -3 7 1 4 9 -7 18 -14 21 -14 7z"/>
<path d="M2830 839 c0 -5 5 -7 10 -4 6 3 10 8 10 11 0 2 -4 4 -10 4 -5 0 -10
-5 -10 -11z"/>
<path d="M2881 832 c-7 -13 -6 -19 2 -19 7 0 13 9 13 19 0 10 -1 18 -3 18 -1
0 -7 -8 -12 -18z"/>
<path d="M3000 836 c0 -8 4 -17 9 -20 5 -4 7 3 4 14 -6 23 -13 26 -13 6z"/>
<path d="M3107 839 c7 -7 15 -10 18 -7 3 3 -2 9 -12 12 -14 6 -15 5 -6 -5z"/>
<path d="M3161 834 c0 -11 3 -14 6 -6 3 7 2 16 -1 19 -3 4 -6 -2 -5 -13z"/>
<path d="M5500 836 c0 -8 4 -17 9 -21 6 -3 8 -14 6 -25 -2 -11 0 -20 6 -20 10
0 8 28 -4 48 -5 6 -5 17 -2 22 3 6 1 10 -4 10 -6 0 -11 -6 -11 -14z"/>
<path d="M5901 834 c0 -11 3 -14 6 -6 3 7 2 16 -1 19 -3 4 -6 -2 -5 -13z"/>
<path d="M6064 835 c-18 -14 -18 -14 4 -8 12 3 22 9 22 14 0 12 -3 11 -26 -6z"/>
<path d="M6500 845 c0 -2 6 -8 13 -14 10 -8 14 -7 14 2 0 8 -6 14 -14 14 -7 0
-13 -1 -13 -2z"/>
<path d="M2855 829 c-4 -6 -5 -12 -2 -15 2 -3 7 2 10 11 7 17 1 20 -8 4z"/>
<path d="M4799 836 c-7 -8 -6 -46 2 -46 5 0 7 5 3 12 -5 7 -2 9 7 6 9 -4 15 1
15 11 0 13 -19 25 -27 17z"/>
<path d="M5433 827 c4 -10 0 -20 -11 -26 -9 -6 -12 -11 -5 -11 6 0 15 5 19 11
4 8 9 7 15 -2 4 -7 11 -11 14 -7 4 3 -3 16 -16 29 -15 15 -20 17 -16 6z"/>
<path d="M5694 829 c1 -7 13 -14 27 -16 18 -2 20 -1 9 6 -8 5 -17 8 -21 5 -4
-2 -10 1 -12 6 -3 6 -4 5 -3 -1z"/>
<path d="M2436 822 c-3 -5 1 -9 9 -9 8 0 12 4 9 9 -3 4 -7 8 -9 8 -2 0 -6 -4
-9 -8z"/>
<path d="M2954 805 c2 -35 11 -39 12 -4 1 16 -2 29 -6 29 -4 0 -6 -11 -6 -25z"/>
<path d="M3136 822 c-2 -4 -1 -14 3 -21 6 -9 11 -10 15 -2 4 6 2 11 -4 11 -6
0 -8 5 -5 10 3 6 4 10 1 10 -3 0 -7 -4 -10 -8z"/>
<path d="M5755 820 c-3 -5 -1 -10 4 -10 6 0 11 5 11 10 0 6 -2 10 -4 10 -3 0
-8 -4 -11 -10z"/>
<path d="M5813 814 c-3 -8 -2 -19 3 -24 5 -5 9 1 9 16 0 28 -3 30 -12 8z"/>
<path d="M5876 821 c-3 -5 1 -14 8 -20 10 -9 16 -9 21 -1 4 6 1 9 -7 8 -7 -2
-12 3 -10 10 2 14 -4 16 -12 3z"/>
<path d="M6112 811 c7 -9 13 -18 15 -20 1 -2 1 5 0 16 0 11 -7 20 -14 20 -10
0 -10 -4 -1 -16z"/>
<path d="M6146 818 c3 -5 10 -6 15 -3 13 9 11 12 -6 12 -8 0 -12 -4 -9 -9z"/>
<path d="M6189 817 c6 -8 7 -18 3 -22 -4 -5 -1 -5 6 -1 10 6 10 11 1 22 -6 8
-14 14 -16 14 -3 0 0 -6 6 -13z"/>
<path d="M6370 819 c0 -5 5 -7 10 -4 6 3 10 8 10 11 0 2 -4 4 -10 4 -5 0 -10
-5 -10 -11z"/>
<path d="M3516 805 c-9 -26 -7 -32 5 -12 6 10 9 21 6 23 -2 3 -7 -2 -11 -11z"/>
<path d="M4103 804 c-8 -21 13 -42 28 -27 13 13 5 43 -11 43 -6 0 -13 -7 -17
-16z m27 -9 c0 -8 -4 -15 -10 -15 -5 0 -10 7 -10 15 0 8 5 15 10 15 6 0 10 -7
10 -15z"/>
<path d="M5661 813 c-1 -17 16 -25 25 -12 4 7 3 9 -4 5 -5 -3 -13 0 -15 6 -4
9 -6 10 -6 1z"/>
<path d="M5835 810 c-3 -6 1 -7 9 -4 18 7 21 14 7 14 -6 0 -13 -4 -16 -10z"/>
<path d="M6015 810 c-4 -6 -10 -8 -15 -5 -10 6 -7 -21 4 -32 4 -4 6 -1 4 7 -1
8 2 14 8 13 6 -1 11 5 11 13 0 17 -4 18 -12 4z"/>
<path d="M2545 799 c-3 -4 2 -6 10 -5 21 3 28 13 10 13 -9 0 -18 -4 -20 -8z"/>
<path d="M2696 798 c3 -5 10 -6 15 -3 13 9 11 12 -6 12 -8 0 -12 -4 -9 -9z"/>
<path d="M3079 793 c-12 -16 -12 -17 2 -6 9 7 20 9 24 5 5 -4 5 -1 1 6 -9 16
-11 15 -27 -5z"/>
<path d="M3190 800 c0 -5 5 -10 11 -10 5 0 7 5 4 10 -3 6 -8 10 -11 10 -2 0
-4 -4 -4 -10z"/>
<path d="M3228 793 c-4 -13 0 -19 13 -19 14 0 16 3 6 16 -6 8 -12 16 -13 18
-1 1 -4 -5 -6 -15z"/>
<path d="M3290 800 c0 -5 5 -10 10 -10 6 0 10 5 10 10 0 6 -4 10 -10 10 -5 0
-10 -4 -10 -10z"/>
<path d="M3345 799 c-11 -16 -1 -19 13 -3 7 8 8 14 3 14 -5 0 -13 -5 -16 -11z"/>
<path d="M5580 800 c8 -5 20 -10 25 -10 6 0 3 5 -5 10 -8 5 -19 10 -25 10 -5
0 -3 -5 5 -10z"/>
<path d="M5916 793 c-6 -14 -5 -15 5 -6 7 7 10 15 7 18 -3 3 -9 -2 -12 -12z"/>
<path d="M6070 806 c0 -2 7 -7 16 -10 8 -3 12 -2 9 4 -6 10 -25 14 -25 6z"/>
<path d="M3588 793 c6 -2 18 -2 25 0 6 3 1 5 -13 5 -14 0 -19 -2 -12 -5z"/>
<path d="M4953 778 c-1 -11 1 -16 5 -12 4 5 11 12 15 15 5 3 2 9 -5 12 -9 3
-14 -3 -15 -15z"/>
<path d="M5550 790 c8 -5 20 -10 25 -10 6 0 3 5 -5 10 -8 5 -19 10 -25 10 -5
0 -3 -5 5 -10z"/>
<path d="M5695 790 c-3 -6 1 -7 9 -4 18 7 21 14 7 14 -6 0 -13 -4 -16 -10z"/>
<path d="M2656 778 c3 -4 11 -5 19 -1 21 7 19 12 -4 10 -11 0 -18 -5 -15 -9z"/>
<path d="M2735 780 c-3 -5 -1 -10 4 -10 6 0 11 5 11 10 0 6 -2 10 -4 10 -3 0
-8 -4 -11 -10z"/>
<path d="M2990 778 c0 -4 4 -8 9 -8 6 0 12 4 15 8 3 5 -1 9 -9 9 -8 0 -15 -4
-15 -9z"/>
<path d="M3033 773 c0 -9 4 -10 14 -2 7 6 13 12 13 14 0 1 -6 2 -13 2 -8 0
-14 -6 -14 -14z"/>
<path d="M3534 782 c7 -12 -5 -16 -31 -13 -7 1 -13 -4 -13 -10 0 -7 3 -9 7 -6
3 4 16 -1 27 -10 12 -10 16 -11 9 -4 -10 11 -9 17 4 26 13 10 13 14 3 20 -9 5
-11 4 -6 -3z"/>
<path d="M3630 785 c0 -5 5 -17 10 -25 5 -8 10 -10 10 -5 0 6 -5 17 -10 25 -5
8 -10 11 -10 5z"/>
<path d="M3975 770 c-16 -11 -25 -20 -18 -20 6 0 15 5 18 10 4 6 16 8 28 5 12
-2 16 -2 9 1 -6 3 -10 10 -6 15 8 13 3 11 -31 -11z"/>
<path d="M4820 780 c0 -5 7 -7 15 -4 8 4 15 8 15 10 0 2 -7 4 -15 4 -8 0 -15
-4 -15 -10z"/>
<path d="M5032 770 c-7 -11 -8 -20 -3 -20 9 0 24 30 18 36 -1 2 -8 -6 -15 -16z"/>
<path d="M5357 775 c-4 -8 -3 -16 1 -19 4 -3 9 4 9 15 2 23 -3 25 -10 4z"/>
<path d="M5874 773 c16 -20 36 -23 36 -6 0 4 -3 3 -7 0 -3 -4 -16 1 -27 10
-21 18 -21 18 -2 -4z"/>
<path d="M5950 778 c0 -4 4 -8 9 -8 6 0 12 4 15 8 3 5 -1 9 -9 9 -8 0 -15 -4
-15 -9z"/>
<path d="M6215 780 c3 -5 8 -10 11 -10 2 0 4 5 4 10 0 6 -5 10 -11 10 -5 0 -7
-4 -4 -10z"/>
<path d="M6336 782 c-2 -4 -1 -14 4 -22 7 -11 9 -9 7 8 -1 24 -3 26 -11 14z"/>
<path d="M3095 771 c-3 -5 -2 -12 3 -15 5 -3 9 1 9 9 0 17 -3 19 -12 6z"/>
<path d="M4461 771 c-11 -7 -9 -10 8 -16 13 -4 25 -4 28 -1 4 3 -1 6 -11 6 -9
0 -14 5 -11 10 8 12 4 12 -14 1z"/>
<path d="M4630 770 c0 -5 3 -9 8 -9 21 4 23 -3 6 -23 -19 -22 -19 -22 0 -8 18
14 19 13 14 -8 -4 -12 -2 -20 3 -17 12 8 8 58 -6 67 -14 11 -25 10 -25 -2z"/>
<path d="M4790 770 c0 -5 5 -10 10 -10 6 0 10 5 10 10 0 6 -4 10 -10 10 -5 0
-10 -4 -10 -10z"/>
<path d="M4990 771 c0 -7 -4 -9 -10 -6 -6 4 -7 -1 -3 -11 6 -15 7 -15 15 1 6
9 7 19 4 22 -3 4 -6 1 -6 -6z"/>
<path d="M5270 770 c0 -5 8 -14 18 -19 14 -7 19 -6 19 4 0 7 -7 11 -15 7 -10
-3 -13 -1 -8 6 4 7 2 12 -3 12 -6 0 -11 -4 -11 -10z"/>
<path d="M5390 770 c-8 -5 -12 -12 -9 -15 4 -3 12 1 19 10 14 17 11 19 -10 5z"/>
<path d="M5427 767 c-3 -8 0 -14 7 -14 7 0 13 6 13 14 0 7 -4 13 -8 13 -4 0
-9 -6 -12 -13z"/>
<path d="M5467 766 c-4 -11 -5 -21 -2 -24 3 -3 5 0 5 7 0 7 4 10 9 6 5 -3 13
0 17 6 4 7 3 9 -4 5 -5 -3 -12 -1 -14 6 -3 7 -7 5 -11 -6z"/>
<path d="M2896 758 c3 -5 10 -6 15 -3 13 9 11 12 -6 12 -8 0 -12 -4 -9 -9z"/>
<path d="M3432 765 c3 -3 16 -8 28 -10 12 -2 20 -1 16 2 -4 4 -16 8 -28 10
-12 2 -19 1 -16 -2z"/>
<path d="M3690 762 c0 -4 9 -8 20 -9 11 -1 20 2 20 5 0 4 -9 8 -20 9 -11 1
-20 -2 -20 -5z"/>
<path d="M3795 760 c-3 -6 1 -7 9 -4 18 7 21 14 7 14 -6 0 -13 -4 -16 -10z"/>
<path d="M3855 760 c-3 -6 1 -7 9 -4 18 7 21 14 7 14 -6 0 -13 -4 -16 -10z"/>
<path d="M3911 751 c-9 -17 -8 -18 11 -13 13 3 17 7 10 10 -7 2 -10 8 -6 13 3
5 3 9 0 9 -3 0 -10 -9 -15 -19z"/>
<path d="M4076 754 c-9 -24 -2 -26 12 -4 7 11 8 20 3 20 -5 0 -12 -7 -15 -16z"/>
<path d="M4140 766 c0 -2 7 -6 15 -10 8 -3 15 -1 15 4 0 6 -7 10 -15 10 -8 0
-15 -2 -15 -4z"/>
<path d="M4267 756 c5 -14 3 -17 -7 -11 -8 5 -11 4 -7 -3 4 -5 15 -9 25 -8 9
2 21 -2 25 -8 6 -7 7 -7 5 2 -2 8 -7 12 -10 10 -4 -2 -14 6 -23 17 -14 19 -15
19 -8 1z"/>
<path d="M4357 751 c14 -17 33 -20 33 -5 0 3 -4 3 -9 0 -5 -3 -11 1 -15 9 -3
8 -10 15 -16 15 -5 0 -2 -9 7 -19z"/>
<path d="M4581 753 c0 -11 3 -13 6 -5 2 6 10 9 15 6 7 -4 8 -2 4 4 -11 18 -26
14 -25 -5z"/>
<path d="M4730 760 c-11 -7 -11 -10 -2 -10 7 0 10 -5 6 -12 -4 -7 -3 -8 5 -4
6 4 8 12 5 18 -5 8 -1 9 10 5 10 -4 15 -3 11 3 -8 12 -16 12 -35 0z"/>
<path d="M4839 768 c-6 -22 -5 -38 3 -38 6 0 7 7 4 16 -5 12 -1 14 17 9 17 -5
19 -4 7 4 -14 10 -29 14 -31 9z"/>
<path d="M5055 760 c-3 -6 1 -7 9 -4 18 7 21 14 7 14 -6 0 -13 -4 -16 -10z"/>
<path d="M5555 760 c-3 -5 -1 -10 4 -10 6 0 11 5 11 10 0 6 -2 10 -4 10 -3 0
-8 -4 -11 -10z"/>
<path d="M5793 755 c0 -8 4 -12 9 -9 4 3 8 9 8 15 0 5 -4 9 -8 9 -5 0 -9 -7
-9 -15z"/>
<path d="M4121 753 c-1 -17 16 -25 25 -12 4 7 3 9 -4 5 -5 -3 -13 0 -15 6 -4
9 -6 10 -6 1z"/>
<path d="M4430 756 c0 -3 9 -10 20 -16 11 -6 20 -8 20 -6 0 3 -9 10 -20 16
-11 6 -20 8 -20 6z"/>
<path d="M4534 749 c3 -15 36 -21 36 -7 0 6 -6 8 -14 5 -8 -3 -17 -2 -20 4 -2
5 -3 4 -2 -2z"/>
<path d="M5100 756 c0 -2 11 -6 25 -8 13 -3 22 -1 19 3 -5 9 -44 13 -44 5z"/>
<path d="M3560 740 c-9 -6 -10 -10 -3 -10 6 0 15 5 18 10 8 12 4 12 -15 0z"/>
<path d="M3627 739 c7 -7 15 -10 18 -7 3 3 -2 9 -12 12 -14 6 -15 5 -6 -5z"/>
<path d="M3747 733 c5 -12 3 -14 -8 -8 -8 5 -11 4 -6 0 4 -5 13 -10 21 -11 16
-2 17 24 0 30 -9 3 -11 -1 -7 -11z"/>
<path d="M4096 742 c-2 -4 -1 -14 3 -21 6 -9 11 -10 15 -2 4 6 2 11 -4 11 -6
0 -8 5 -5 10 3 6 4 10 1 10 -3 0 -7 -4 -10 -8z"/>
<path d="M4215 740 c-3 -6 1 -7 9 -4 18 7 21 14 7 14 -6 0 -13 -4 -16 -10z"/>
<path d="M4335 739 c-4 -6 -5 -12 -2 -15 2 -3 7 2 10 11 7 17 1 20 -8 4z"/>
<path d="M4400 746 c0 -2 7 -7 16 -10 8 -3 12 -2 9 4 -6 10 -25 14 -25 6z"/>
<path d="M4513 722 c1 -16 7 -29 14 -29 7 0 9 5 5 11 -3 6 -7 17 -8 24 -4 27
-12 22 -11 -6z"/>
<path d="M4613 734 c-3 -8 -2 -19 3 -24 5 -5 9 1 9 16 0 28 -3 30 -12 8z"/>
<path d="M4693 734 c-3 -8 -1 -20 5 -26 8 -8 9 -4 5 12 -5 17 -3 21 7 15 9 -5
11 -4 6 3 -10 16 -15 15 -23 -4z"/>
<path d="M4775 740 c-7 -12 19 -24 37 -17 7 3 3 6 -10 6 -13 1 -20 5 -17 11 3
6 4 10 1 10 -3 0 -8 -5 -11 -10z"/>
<path d="M4935 741 c-7 -12 12 -24 25 -16 6 3 10 12 9 18 0 9 -2 9 -6 0 -2 -7
-9 -13 -14 -13 -6 0 -7 5 -4 10 3 6 4 10 1 10 -3 0 -7 -4 -11 -9z"/>
<path d="M5070 742 c0 -12 22 -32 35 -32 5 0 2 5 -8 11 -9 6 -15 14 -12 20 4
5 1 9 -4 9 -6 0 -11 -4 -11 -8z"/>
<path d="M5319 743 c0 -5 -2 -16 -4 -26 -2 -11 -1 -16 3 -13 8 8 14 46 7 46
-3 0 -5 -3 -6 -7z"/>
<path d="M5506 742 c-3 -5 1 -9 9 -9 8 0 15 4 15 9 0 4 -4 8 -9 8 -6 0 -12 -4
-15 -8z"/>
<path d="M5580 746 c0 -2 8 -10 18 -17 15 -13 16 -12 3 4 -13 16 -21 21 -21
13z"/>
<path d="M3668 733 c7 -3 16 -2 19 1 4 3 -2 6 -13 5 -11 0 -14 -3 -6 -6z"/>
<path d="M3853 723 c1 -18 4 -20 17 -10 25 19 26 20 8 14 -9 -3 -19 -1 -21 6
-3 7 -4 2 -4 -10z"/>
<path d="M5177 728 c2 -5 13 -8 23 -8 10 0 21 3 23 8 3 4 -8 7 -23 7 -15 0
-26 -3 -23 -7z"/>
<path d="M5371 727 c-8 -10 -7 -14 2 -14 8 0 14 6 14 14 0 7 -1 13 -2 13 -2 0
-8 -6 -14 -13z"/>
<path d="M5713 725 c0 -8 4 -12 9 -9 5 3 6 10 3 15 -9 13 -12 11 -12 -6z"/>
<path d="M3056 722 c-3 -5 1 -9 9 -9 8 0 12 4 9 9 -3 4 -7 8 -9 8 -2 0 -6 -4
-9 -8z"/>
<path d="M3255 720 c3 -5 8 -10 11 -10 2 0 4 5 4 10 0 6 -5 10 -11 10 -5 0 -7
-4 -4 -10z"/>
<path d="M3310 719 c0 -5 5 -7 10 -4 6 3 10 8 10 11 0 2 -4 4 -10 4 -5 0 -10
-5 -10 -11z"/>
<path d="M3806 722 c-3 -5 1 -9 9 -9 8 0 12 4 9 9 -3 4 -7 8 -9 8 -2 0 -6 -4
-9 -8z"/>
<path d="M3926 718 c3 -5 10 -6 15 -3 13 9 11 12 -6 12 -8 0 -12 -4 -9 -9z"/>
<path d="M4020 720 c8 -5 20 -10 25 -10 6 0 3 5 -5 10 -8 5 -19 10 -25 10 -5
0 -3 -5 5 -10z"/>
<path d="M4150 721 c0 -10 29 -36 34 -30 1 2 -6 12 -16 22 -10 9 -18 13 -18 8z"/>
<path d="M4240 720 c8 -5 20 -10 25 -10 6 0 3 5 -5 10 -8 5 -19 10 -25 10 -5
0 -3 -5 5 -10z"/>
<path d="M4380 720 c-8 -5 -10 -10 -5 -10 6 0 17 5 25 10 8 5 11 10 5 10 -5 0
-17 -5 -25 -10z"/>
<path d="M4446 717 c3 -10 9 -15 12 -12 3 3 0 11 -7 18 -10 9 -11 8 -5 -6z"/>
<path d="M4482 721 c-11 -6 -10 -10 0 -19 11 -8 14 -7 14 9 0 10 0 19 -1 19 0
0 -6 -4 -13 -9z"/>
<path d="M4576 713 c-6 -14 -5 -15 5 -6 7 7 10 15 7 18 -3 3 -9 -2 -12 -12z"/>
<path d="M4880 720 c-9 -6 -10 -10 -3 -10 6 0 15 5 18 10 8 12 4 12 -15 0z"/>
<path d="M4976 713 c-6 -14 -5 -15 5 -6 7 7 10 15 7 18 -3 3 -9 -2 -12 -12z"/>
<path d="M5153 713 c0 -11 7 -20 14 -20 10 0 10 4 1 16 -7 9 -13 18 -15 20 -1
2 -1 -5 0 -16z"/>
<path d="M5441 716 c-8 -10 -9 -16 -1 -21 6 -4 9 -1 8 7 -2 7 3 12 10 10 8 -1
11 2 7 8 -8 13 -10 13 -24 -4z"/>
<path d="M5806 718 c3 -5 10 -6 15 -3 13 9 11 12 -6 12 -8 0 -12 -4 -9 -9z"/>
<path d="M6316 722 c-3 -5 1 -9 9 -9 8 0 12 4 9 9 -3 4 -7 8 -9 8 -2 0 -6 -4
-9 -8z"/>
<path d="M3190 717 c0 -2 6 -10 14 -16 11 -9 16 -9 22 1 4 7 4 10 -1 6 -4 -4
-14 -3 -22 3 -7 6 -13 9 -13 6z"/>
<path d="M4830 711 c0 -5 7 -12 16 -15 14 -5 15 -4 4 9 -14 17 -20 19 -20 6z"/>
<path d="M4911 707 c-8 -10 -7 -14 2 -14 8 0 14 6 14 14 0 7 -1 13 -2 13 -2 0
-8 -6 -14 -13z"/>
<path d="M3911 693 c7 -12 15 -20 18 -17 3 2 -3 12 -13 22 -17 16 -18 16 -5
-5z"/>
<path d="M3990 696 c7 -7 13 -7 20 0 6 6 3 10 -10 10 -13 0 -16 -4 -10 -10z"/>
<path d="M4119 693 c-13 -16 -12 -17 4 -4 16 13 21 21 13 21 -2 0 -10 -8 -17
-17z"/>
<path d="M4786 702 c-2 -4 4 -8 14 -8 10 0 16 4 14 8 -3 4 -9 8 -14 8 -5 0
-11 -4 -14 -8z"/>
<path d="M5535 700 c3 -5 8 -10 11 -10 2 0 4 5 4 10 0 6 -5 10 -11 10 -5 0 -7
-4 -4 -10z"/>
<path d="M5570 699 c0 -5 5 -7 10 -4 6 3 10 8 10 11 0 2 -4 4 -10 4 -5 0 -10
-5 -10 -11z"/>
<path d="M3730 696 c0 -2 8 -10 18 -17 15 -13 16 -12 3 4 -13 16 -21 21 -21
13z"/>
<path d="M4055 691 c-3 -5 -2 -12 3 -15 5 -3 9 1 9 9 0 17 -3 19 -12 6z"/>
<path d="M5033 687 c0 -13 49 -18 61 -6 3 3 -4 5 -17 4 -12 -1 -27 2 -33 6 -6
5 -11 4 -11 -4z"/>
<path d="M5796 687 c3 -10 9 -15 12 -12 3 3 0 11 -7 18 -10 9 -11 8 -5 -6z"/>
<path d="M3944 682 c4 -3 14 -7 22 -8 9 -1 13 0 10 4 -4 3 -14 7 -22 8 -9 1
-13 0 -10 -4z"/>
<path d="M4196 673 c-6 -14 -5 -15 5 -6 7 7 10 15 7 18 -3 3 -9 -2 -12 -12z"/>
<path d="M4590 685 c0 -7 30 -13 34 -7 3 4 -4 9 -15 9 -10 1 -19 0 -19 -2z"/>
<path d="M4670 681 c0 -6 4 -12 8 -15 5 -3 9 1 9 9 0 8 -4 15 -9 15 -4 0 -8
-4 -8 -9z"/>
<path d="M3510 660 c0 -5 5 -10 11 -10 5 0 7 5 4 10 -3 6 -8 10 -11 10 -2 0
-4 -4 -4 -10z"/>
<path d="M3616 658 c3 -4 11 -5 19 -1 21 7 19 12 -4 10 -11 0 -18 -5 -15 -9z"/>
<path d="M5415 661 c-3 -5 -2 -12 3 -15 5 -3 9 1 9 9 0 17 -3 19 -12 6z"/>
<path d="M5493 663 c4 -3 1 -13 -6 -22 -11 -14 -10 -14 5 -2 16 12 16 31 1 31
-4 0 -3 -3 0 -7z"/>
<path d="M3949 643 c-13 -16 -12 -17 4 -4 16 13 21 21 13 21 -2 0 -10 -8 -17
-17z"/>
<path d="M4076 647 c3 -10 9 -15 12 -12 3 3 0 11 -7 18 -10 9 -11 8 -5 -6z"/>
<path d="M3670 640 c0 -5 5 -10 11 -10 5 0 7 5 4 10 -3 6 -8 10 -11 10 -2 0
-4 -4 -4 -10z"/>
<path d="M3790 639 c0 -5 5 -7 10 -4 6 3 10 8 10 11 0 2 -4 4 -10 4 -5 0 -10
-5 -10 -11z"/>
<path d="M4175 640 c-3 -5 -1 -10 4 -10 6 0 11 5 11 10 0 6 -2 10 -4 10 -3 0
-8 -4 -11 -10z"/>
<path d="M4656 638 c3 -5 10 -6 15 -3 13 9 11 12 -6 12 -8 0 -12 -4 -9 -9z"/>
<path d="M4990 640 c0 -5 5 -10 11 -10 5 0 7 5 4 10 -3 6 -8 10 -11 10 -2 0
-4 -4 -4 -10z"/>
<path d="M5075 641 c-3 -5 -2 -12 3 -15 5 -3 9 1 9 9 0 17 -3 19 -12 6z"/>
<path d="M4013 615 c0 -8 4 -12 9 -9 5 3 6 10 3 15 -9 13 -12 11 -12 -6z"/>
<path d="M4336 618 c3 -4 11 -5 19 -1 21 7 19 12 -4 10 -11 0 -18 -5 -15 -9z"/>
<path d="M4486 622 c-3 -5 1 -9 9 -9 8 0 12 4 9 9 -3 4 -7 8 -9 8 -2 0 -6 -4
-9 -8z"/>
<path d="M4565 620 c-3 -6 1 -7 9 -4 18 7 21 14 7 14 -6 0 -13 -4 -16 -10z"/>
<path d="M4710 576 c0 -2 8 -10 18 -17 15 -13 16 -12 3 4 -13 16 -21 21 -21
13z"/>
</g>
</svg>
